<svg width="86" height="26" viewBox="0 0 86 26" fill="none" xmlns="http://www.w3.org/2000/svg">
<g clip-path="url(#clip0_341_335)">
<path d="M79.5929 0.579183L7.40193 0.579183C7.15554 0.579183 6.91211 0.579183 6.66638 0.580431C6.46068 0.58168 6.25662 0.585306 6.04894 0.588358C5.59777 0.593291 5.14766 0.630165 4.70253 0.698661C4.25802 0.768648 3.82743 0.900593 3.42533 1.09003C3.02373 1.28108 2.65677 1.52932 2.33777 1.82575C2.01709 2.12136 1.74979 2.46303 1.54612 2.83764C1.3419 3.2115 1.20029 3.61213 1.12619 4.02569C1.05138 4.43873 1.01113 4.85653 1.00578 5.27534C0.99955 5.46672 0.998891 5.65874 0.995605 5.85014L0.995605 20.2781C0.998891 20.4719 0.99955 20.6596 1.00578 20.8535C1.01113 21.2723 1.05138 21.6901 1.12619 22.1031C1.20009 22.5169 1.34171 22.9178 1.54612 23.2918C1.74969 23.6652 2.01704 24.0055 2.33777 24.2994C2.65556 24.5972 3.02275 24.8456 3.42533 25.0352C3.82743 25.2251 4.25797 25.3578 4.70253 25.4289C5.14774 25.4969 5.5978 25.5337 6.04894 25.5393C6.25662 25.5435 6.46068 25.5459 6.66638 25.5459C6.91211 25.5472 7.15556 25.5472 7.40193 25.5472L79.5929 25.5472C79.8344 25.5472 80.0798 25.5472 80.3212 25.5459C80.526 25.5459 80.7359 25.5435 80.9407 25.5393C81.3909 25.534 81.8402 25.4972 82.2844 25.4289C82.7304 25.3573 83.1625 25.2246 83.5666 25.0352C83.9688 24.8455 84.3356 24.5971 84.6532 24.2994C84.9731 24.0043 85.241 23.6643 85.4471 23.2918C85.65 22.9175 85.7902 22.5167 85.863 22.1031C85.938 21.69 85.9797 21.2724 85.9877 20.8535C85.9904 20.6596 85.9904 20.4719 85.9904 20.2781C85.9956 20.0513 85.9956 19.8258 85.9956 19.5953L85.9956 6.53164C85.9956 6.30305 85.9956 6.07629 85.9904 5.85014C85.9904 5.65874 85.9904 5.46672 85.9877 5.27532C85.9797 4.85647 85.938 4.43876 85.863 4.02567C85.79 3.61235 85.6498 3.21175 85.4471 2.83761C85.0323 2.08675 84.3747 1.47555 83.5666 1.08998C83.1625 0.901 82.7304 0.76909 82.2844 0.698605C81.8402 0.629807 81.391 0.59292 80.9407 0.588271C80.7359 0.585225 80.526 0.581567 80.3212 0.58035C80.0798 0.579102 79.8344 0.579102 79.5929 0.579102V0.579183Z" fill="#A6A6A6"/>
<path d="M6.66951 25.0007C6.4648 25.0007 6.26502 24.9982 6.06192 24.994C5.64117 24.9889 5.2214 24.9549 4.80605 24.8922C4.41877 24.8302 4.04359 24.715 3.6929 24.5502C3.34542 24.3868 3.02849 24.1725 2.75426 23.9156C2.47605 23.6617 2.24443 23.3673 2.06858 23.0439C1.89079 22.7185 1.76775 22.3696 1.70374 22.0095C1.63462 21.6226 1.59722 21.2313 1.59187 20.8391C1.58761 20.7075 1.58203 20.2692 1.58203 20.2692L1.58203 5.84979C1.58203 5.84979 1.58797 5.41821 1.5919 5.29141C1.59703 4.89984 1.6342 4.5092 1.70311 4.12287C1.76724 3.76178 1.89038 3.41191 2.06827 3.08538C2.24348 2.76224 2.47381 2.46757 2.75033 2.21278C3.02655 1.95558 3.3445 1.74022 3.69257 1.57456C4.04245 1.41032 4.41692 1.29586 4.80343 1.23503C5.22014 1.17171 5.64136 1.13748 6.06358 1.13262L6.66984 1.125L80.3178 1.125L80.9313 1.13293C81.3497 1.13755 81.7671 1.17147 82.18 1.23442C82.5704 1.29602 82.9487 1.41127 83.3026 1.57638C83.9999 1.91024 84.5673 2.43842 84.9253 3.08691C85.1003 3.41118 85.2215 3.75819 85.2849 4.11616C85.3546 4.50566 85.3936 4.89938 85.4016 5.29416C85.4036 5.47093 85.4036 5.66081 85.4036 5.84979C85.4089 6.08386 85.4089 6.30666 85.4089 6.53128L85.4089 19.595C85.4089 19.8217 85.4089 20.043 85.4036 20.2661C85.4036 20.4691 85.4036 20.655 85.401 20.8464C85.3931 21.2342 85.3548 21.6208 85.2861 22.0034C85.2234 22.3661 85.1011 22.7177 84.9233 23.0458C84.7462 23.3656 84.5159 23.6576 84.2409 23.9108C83.9665 24.169 83.649 24.3845 83.3007 24.549C82.9478 24.715 82.57 24.8307 82.18 24.8922C81.7646 24.9552 81.3448 24.9892 80.924 24.994C80.7272 24.9982 80.5212 25.0007 80.3211 25.0007L79.5928 25.0019L6.66951 25.0007Z" fill="black"/>
<path d="M17.6395 13.2505C17.6468 12.7295 17.7957 12.2187 18.0726 11.7655C18.3494 11.3124 18.7451 10.9317 19.2229 10.6588C18.9194 10.2561 18.519 9.92468 18.0535 9.69088C17.5879 9.45709 17.0702 9.32735 16.5413 9.31198C15.413 9.20195 14.3192 9.93919 13.7442 9.93919C13.1581 9.93919 12.2729 9.3229 11.3197 9.34112C10.7031 9.35963 10.1022 9.5262 9.5755 9.8246C9.04881 10.123 8.61431 10.5431 8.31433 11.0439C7.01488 13.1339 7.98415 16.2057 9.22892 17.8951C9.8517 18.7224 10.5796 19.6465 11.5319 19.6137C12.4639 19.5778 12.812 19.0617 13.9369 19.0617C15.0514 19.0617 15.378 19.6137 16.3497 19.5929C17.3497 19.5778 17.9798 18.7619 18.5807 17.9268C19.0282 17.3374 19.3725 16.6859 19.6009 15.9965C19.0199 15.7682 18.5241 15.3861 18.1754 14.8978C17.8266 14.4094 17.6402 13.8366 17.6395 13.2505Z" fill="white"/>
<path d="M15.8044 8.20131C16.3497 7.59321 16.6183 6.8116 16.5532 6.02246C15.7202 6.10374 14.9507 6.47362 14.3981 7.05839C14.1279 7.34407 13.9209 7.67641 13.7891 8.03643C13.6572 8.39645 13.603 8.77708 13.6296 9.15657C14.0463 9.16056 14.4585 9.07666 14.8352 8.91119C15.2119 8.74572 15.5433 8.503 15.8044 8.20131Z" fill="white"/>
<path d="M24.9521 9.7567L24.9521 6.5586L23.6909 6.5586L23.6909 6.03223L26.8332 6.03223L26.8332 6.55859L25.5747 6.55859L25.5747 9.7567L24.9521 9.7567Z" fill="white"/>
<path d="M29.7288 8.99752C29.6477 9.25441 29.4719 9.47661 29.2323 9.62527C28.9926 9.77392 28.7043 9.83955 28.4178 9.81069C28.2185 9.81558 28.0204 9.78011 27.8373 9.70675C27.6542 9.63339 27.4905 9.52389 27.3575 9.38585C27.2246 9.24782 27.1255 9.08455 27.0673 8.90739C27.009 8.73023 26.993 8.54341 27.0202 8.35991C26.9937 8.17584 27.01 7.98862 27.0681 7.81093C27.1262 7.63324 27.2248 7.46922 27.357 7.32998C27.4893 7.19073 27.6523 7.07952 27.8348 7.00386C28.0174 6.9282 28.2153 6.88987 28.4152 6.89145C29.257 6.89145 29.7649 7.42577 29.7649 8.30839L29.7649 8.50193L27.6285 8.50193L27.6285 8.53301C27.6191 8.63616 27.6331 8.73998 27.6694 8.83783C27.7058 8.93567 27.7638 9.02537 27.8396 9.10119C27.9155 9.177 28.0076 9.23725 28.11 9.27807C28.2124 9.31889 28.3228 9.33938 28.4342 9.33823C28.5771 9.35416 28.7218 9.33027 28.8499 9.26959C28.9781 9.20891 29.084 9.1142 29.154 8.99748L29.7288 8.99752ZM27.6285 8.0917L29.1567 8.0917C29.1642 7.99737 29.1504 7.90262 29.1161 7.81353C29.0819 7.72445 29.028 7.643 28.9578 7.57443C28.8877 7.50585 28.8029 7.45167 28.7089 7.41536C28.6149 7.37904 28.5137 7.3614 28.4119 7.36357C28.3086 7.36236 28.2062 7.38038 28.1105 7.41654C28.0148 7.45271 27.9279 7.5063 27.8549 7.57416C27.7819 7.64202 27.7243 7.72278 27.6854 7.81166C27.6465 7.90054 27.6271 7.99576 27.6285 8.0917H27.6285ZM28.0563 6.47573L28.7538 5.58789L29.4539 5.58789L28.6731 6.47573L28.0563 6.47573Z" fill="white"/>
<path d="M30.5942 5.84863L31.1913 5.84863L31.1913 9.75659L30.5942 9.75659L30.5942 5.84863Z" fill="white"/>
<path d="M34.7298 8.99752C34.6487 9.25441 34.4729 9.47661 34.2332 9.62527C33.9936 9.77392 33.7053 9.83955 33.4188 9.81069C33.2195 9.81558 33.0214 9.78011 32.8383 9.70675C32.6552 9.63339 32.4915 9.52389 32.3585 9.38585C32.2255 9.24782 32.1265 9.08455 32.0682 8.90739C32.01 8.73023 31.9939 8.54341 32.0212 8.35991C31.9947 8.17584 32.011 7.98862 32.0691 7.81093C32.1272 7.63324 32.2257 7.46922 32.358 7.32998C32.4903 7.19073 32.6532 7.07952 32.8358 7.00386C33.0184 6.9282 33.2163 6.88987 33.4162 6.89145C34.258 6.89145 34.7659 7.42577 34.7659 8.30839L34.7659 8.50193L32.6294 8.50193L32.6294 8.53301C32.6201 8.63616 32.634 8.73998 32.6704 8.83783C32.7068 8.93567 32.7647 9.02537 32.8406 9.10119C32.9165 9.177 33.0086 9.23725 33.1109 9.27807C33.2133 9.31889 33.3238 9.33938 33.4352 9.33823C33.578 9.35416 33.7227 9.33027 33.8509 9.26959C33.9791 9.20891 34.0849 9.1142 34.155 8.99748L34.7298 8.99752ZM32.6294 8.0917L34.1576 8.0917C34.1651 7.99737 34.1513 7.90262 34.1171 7.81353C34.0829 7.72445 34.0289 7.643 33.9588 7.57443C33.8887 7.50585 33.8039 7.45167 33.7098 7.41536C33.6158 7.37904 33.5147 7.3614 33.4129 7.36357C33.3096 7.36237 33.2071 7.38038 33.1115 7.41655C33.0158 7.45271 32.9289 7.50631 32.8559 7.57417C32.7829 7.64203 32.7252 7.72278 32.6863 7.81166C32.6474 7.90055 32.6281 7.99576 32.6294 8.0917ZM33.0572 6.47573L33.7547 5.58789L34.4549 5.58789L33.6741 6.47573L33.0572 6.47573Z" fill="white"/>
<path d="M37.5488 7.86425C37.5108 7.7185 37.4178 7.59023 37.2867 7.50268C37.1556 7.41513 36.9951 7.37407 36.8343 7.38696C36.3343 7.38696 36.0285 7.74294 36.0285 8.34185C36.0285 8.95112 36.3369 9.31503 36.8343 9.31503C36.9935 9.33217 37.1541 9.29468 37.2856 9.20959C37.4172 9.1245 37.5108 8.99768 37.5488 8.85298L38.1295 8.85298C38.0911 9.1376 37.9346 9.39701 37.6932 9.57591C37.4518 9.75481 37.1448 9.83903 36.8376 9.81062C36.6353 9.81655 36.434 9.78135 36.2479 9.70748C36.0618 9.63361 35.8952 9.52286 35.76 9.38296C35.6248 9.24307 35.5241 9.07741 35.4649 8.89759C35.4058 8.71776 35.3897 8.5281 35.4177 8.34187C35.3911 8.15702 35.4082 7.969 35.4679 7.79094C35.5276 7.61289 35.6285 7.44908 35.7633 7.31097C35.8982 7.17285 36.064 7.06375 36.2489 6.99128C36.4339 6.91881 36.6337 6.88473 36.8343 6.8914C37.1441 6.86489 37.4527 6.95172 37.6946 7.13342C37.9365 7.31511 38.0926 7.57733 38.1295 7.86427L37.5488 7.86425Z" fill="white"/>
<path d="M38.9219 5.84863L39.5138 5.84863L39.5138 7.39756L39.561 7.39756C39.6404 7.23569 39.7715 7.10049 39.9366 7.01039C40.1017 6.92029 40.2927 6.87966 40.4835 6.89405C40.63 6.88665 40.7764 6.90936 40.9123 6.96057C41.0482 7.01178 41.1702 7.09023 41.2698 7.19031C41.3693 7.29039 41.4438 7.40965 41.488 7.53957C41.5322 7.66948 41.545 7.80686 41.5255 7.9419L41.5255 9.7566L40.9277 9.7566L40.9277 8.07875C40.9277 7.6298 40.7026 7.40242 40.2808 7.40242C40.1781 7.39461 40.0749 7.40771 39.9783 7.44083C39.8817 7.47394 39.7941 7.52627 39.7215 7.59414C39.6489 7.66202 39.5932 7.7438 39.5582 7.83377C39.5232 7.92374 39.5098 8.01973 39.519 8.11501L39.519 9.75658L38.9219 9.75658L38.9219 5.84863Z" fill="white"/>
<path d="M42.2764 8.9617C42.2764 8.45575 42.6819 8.16408 43.4017 8.12262L44.2212 8.07874L44.2212 7.83613C44.2212 7.53927 44.0099 7.37164 43.6018 7.37164C43.2685 7.37164 43.0375 7.48532 42.9712 7.68404L42.3932 7.68404C42.4542 7.20126 42.943 6.8916 43.6293 6.8916C44.3878 6.8916 44.8153 7.2424 44.8153 7.83613L44.8153 9.75658L44.2409 9.75658L44.2409 9.36158L44.1936 9.36158C44.0978 9.50327 43.9631 9.61878 43.8035 9.69631C43.6438 9.77384 43.4648 9.81062 43.2849 9.80289C43.1579 9.81517 43.0295 9.80258 42.908 9.76594C42.7866 9.7293 42.6747 9.66943 42.5797 9.59017C42.4847 9.51092 42.4086 9.41404 42.3564 9.3058C42.3041 9.19755 42.2769 9.08033 42.2764 8.9617ZM44.2212 8.72153L44.2212 8.48655L43.4824 8.53043C43.0657 8.55634 42.8767 8.68801 42.8767 8.9358C42.8767 9.18877 43.113 9.33598 43.4378 9.33598C43.5329 9.34493 43.6291 9.336 43.7205 9.30973C43.8118 9.28346 43.8966 9.24038 43.9697 9.18305C44.0428 9.12572 44.1027 9.05532 44.1459 8.97603C44.1891 8.89675 44.2147 8.8102 44.2212 8.72153L44.2212 8.72153Z" fill="white"/>
<path d="M45.7505 6.94582L46.3253 6.94582L46.3253 7.37679L46.3699 7.37679C46.4342 7.22718 46.548 7.10037 46.6947 7.01456C46.8415 6.92875 47.0138 6.88836 47.1868 6.89918C47.2762 6.89807 47.3655 6.90583 47.4532 6.92235L47.4532 7.46977C47.3436 7.44802 47.2319 7.43679 47.1199 7.43625C47.0214 7.42803 46.9221 7.43905 46.8285 7.46858C46.7349 7.49812 46.649 7.54552 46.5762 7.60775C46.5035 7.66998 46.4456 7.74566 46.4062 7.82992C46.3668 7.91418 46.3469 8.00516 46.3476 8.09701L46.3476 9.75657L45.7505 9.75657L45.7505 6.94582Z" fill="white"/>
<path d="M48.0022 10.0377L48.6131 10.0377C48.6636 10.2416 48.9162 10.3733 49.3191 10.3733C49.8165 10.3733 50.1111 10.1538 50.1111 9.7823L50.1111 9.24283L50.0665 9.24283C49.9728 9.39384 49.836 9.51785 49.6713 9.60117C49.5065 9.68449 49.3201 9.72386 49.1328 9.71494C48.3605 9.71494 47.8828 9.16023 47.8828 8.31872C47.8828 7.46169 48.3657 6.89903 49.1387 6.89903C49.3307 6.89281 49.5209 6.93575 49.6885 7.02315C49.856 7.11055 49.9945 7.23905 50.0888 7.39461L50.136 7.39461L50.136 6.94566L50.7082 6.94566L50.7082 9.77953C50.7082 10.4223 50.1662 10.8301 49.3106 10.8301C48.5547 10.8302 48.0659 10.5153 48.0022 10.0377ZM50.1222 8.31598C50.1222 7.75607 49.8106 7.39735 49.3021 7.39735C48.7883 7.39735 48.4996 7.75609 48.4996 8.31598C48.4996 8.87617 48.7883 9.2349 49.3021 9.2349C49.8139 9.2349 50.1222 8.87892 50.1222 8.31595V8.31598Z" fill="white"/>
<path d="M54.2181 8.99772C54.1369 9.2546 53.9612 9.47681 53.7215 9.62546C53.4819 9.77411 53.1936 9.83975 52.9071 9.81088C52.7078 9.81577 52.5097 9.78031 52.3266 9.70694C52.1435 9.63358 51.9798 9.52408 51.8468 9.38605C51.7138 9.24801 51.6148 9.08475 51.5565 8.90759C51.4983 8.73042 51.4822 8.54361 51.5095 8.36011C51.4829 8.17604 51.4993 7.98882 51.5574 7.81113C51.6155 7.63343 51.714 7.46942 51.8463 7.33017C51.9786 7.19093 52.1415 7.07972 52.3241 7.00406C52.5066 6.9284 52.7046 6.89007 52.9045 6.89165C53.7463 6.89165 54.2542 7.42596 54.2542 8.30858L54.2542 8.50212L52.1177 8.50212L52.1177 8.53321C52.1084 8.63635 52.1223 8.74018 52.1587 8.83802C52.1951 8.93587 52.2531 9.02557 52.3289 9.10138C52.4048 9.17719 52.4969 9.23744 52.5992 9.27826C52.7016 9.31908 52.8121 9.33958 52.9235 9.33843C53.0663 9.35436 53.211 9.33046 53.3392 9.26979C53.4674 9.20911 53.5732 9.11439 53.6433 8.99768L54.2181 8.99772ZM52.1177 8.0919L53.6459 8.0919C53.6534 7.99756 53.6396 7.90281 53.6054 7.81373C53.5711 7.72464 53.5172 7.6432 53.4471 7.57462C53.377 7.50605 53.2921 7.45187 53.1981 7.41555C53.1041 7.37924 53.003 7.3616 52.9012 7.36377C52.7979 7.36256 52.6954 7.38058 52.5998 7.41675C52.5041 7.45292 52.4172 7.50651 52.3442 7.57437C52.2712 7.64223 52.2135 7.72298 52.1746 7.81186C52.1357 7.90075 52.1164 7.99596 52.1177 8.0919L52.1177 8.0919Z" fill="white"/>
<path d="M55.0557 6.94582L55.6305 6.94582L55.6305 7.37679L55.6751 7.37679C55.7395 7.22718 55.8532 7.10037 56 7.01456C56.1467 6.92875 56.319 6.88836 56.492 6.89918C56.5814 6.89807 56.6708 6.90583 56.7584 6.92235L56.7584 7.46977C56.6488 7.44802 56.5371 7.43679 56.4251 7.43625C56.3266 7.42803 56.2274 7.43904 56.1337 7.46857C56.0401 7.4981 55.9541 7.54551 55.8814 7.60774C55.8087 7.66997 55.7508 7.74564 55.7114 7.82991C55.672 7.91417 55.652 8.00515 55.6528 8.09701L55.6528 9.75657L55.0557 9.75657L55.0557 6.94582Z" fill="white"/>
<path d="M58.9102 8.35C58.9102 7.46186 59.4016 6.89922 60.166 6.89922C60.3551 6.89113 60.5428 6.9332 60.7071 7.02053C60.8714 7.10785 61.0055 7.23681 61.0938 7.39234L61.1384 7.39234L61.1384 5.84863L61.7355 5.84863L61.7355 9.75659L61.1634 9.75659L61.1634 9.31251L61.1161 9.31251C61.021 9.467 60.8822 9.59436 60.7147 9.6808C60.5472 9.76724 60.3575 9.80947 60.166 9.80291C59.3964 9.80292 58.9102 9.24028 58.9102 8.35ZM59.527 8.35C59.527 8.94617 59.8294 9.3049 60.3353 9.3049C60.8386 9.3049 61.1496 8.94099 61.1496 8.35244C61.1496 7.76664 60.8353 7.39755 60.3353 7.39755C59.8327 7.39755 59.5269 7.75874 59.5269 8.35L59.527 8.35Z" fill="white"/>
<path d="M62.5425 8.9617C62.5425 8.45575 62.948 8.16408 63.6678 8.12262L64.4873 8.07874L64.4873 7.83613C64.4873 7.53927 64.276 7.37164 63.8679 7.37164C63.5346 7.37164 63.3036 7.48532 63.2373 7.68404L62.6593 7.68404C62.7203 7.20126 63.2091 6.8916 63.8955 6.8916C64.654 6.8916 65.0818 7.2424 65.0818 7.83613L65.0818 9.75658L64.507 9.75658L64.507 9.36158L64.4598 9.36158C64.3639 9.50327 64.2292 9.61878 64.0696 9.69631C63.9099 9.77384 63.7309 9.81062 63.551 9.80289C63.424 9.81517 63.2956 9.80258 63.1742 9.76594C63.0527 9.7293 62.9409 9.66942 62.8458 9.59017C62.7508 9.51091 62.6747 9.41404 62.6225 9.30579C62.5702 9.19755 62.543 9.08033 62.5425 8.9617ZM64.4873 8.72153L64.4873 8.48655L63.7485 8.53043C63.3318 8.55633 63.1429 8.688 63.1429 8.93579C63.1429 9.18876 63.3791 9.33597 63.7039 9.33597C63.7991 9.34492 63.8952 9.33599 63.9866 9.30972C64.078 9.28344 64.1627 9.24036 64.2358 9.18304C64.3089 9.12571 64.3688 9.05531 64.412 8.97603C64.4552 8.89674 64.4808 8.8102 64.4873 8.72153V8.72153Z" fill="white"/>
<path d="M66.0171 6.94569L66.5919 6.94569L66.5919 7.3922L66.6365 7.3922C66.7122 7.23183 66.8399 7.0974 67.0017 7.00763C67.1635 6.91787 67.3515 6.87725 67.5394 6.89144C67.6866 6.88116 67.8344 6.90178 67.9719 6.95177C68.1093 7.00177 68.2329 7.07986 68.3335 7.18026C68.4341 7.28066 68.509 7.40079 68.5528 7.53176C68.5966 7.66273 68.6082 7.80118 68.5866 7.93685L68.5866 9.75639L67.9895 9.75639L67.9895 8.07615C67.9895 7.62446 67.7782 7.39982 67.3366 7.39982C67.2367 7.3955 67.1369 7.4113 67.0441 7.44615C66.9514 7.481 66.8678 7.53407 66.7992 7.60173C66.7306 7.66938 66.6785 7.75002 66.6466 7.83811C66.6146 7.92621 66.6036 8.01967 66.6142 8.11211L66.6142 9.75642L66.0171 9.75642L66.0171 6.94569Z" fill="white"/>
<path d="M70.616 6.8916C71.2965 6.8916 71.7413 7.18572 71.7997 7.6813L71.2269 7.6813C71.1718 7.47496 70.9546 7.3433 70.616 7.3433C70.2827 7.3433 70.0295 7.4902 70.0295 7.70965C70.0295 7.87756 70.1824 7.98335 70.5104 8.05314L71.013 8.16134C71.5884 8.28539 71.8581 8.51519 71.8581 8.92818C71.8581 9.45729 71.3273 9.81084 70.6049 9.81084C69.8851 9.81084 69.4159 9.50879 69.3628 9.01078L69.9605 9.01078C70.0121 9.12931 70.1049 9.22833 70.2243 9.29194C70.3436 9.35556 70.4825 9.38008 70.6187 9.36158C70.9907 9.36158 71.2551 9.20677 71.2551 8.98212C71.2551 8.81449 71.1134 8.70598 70.8103 8.63893L70.2827 8.52525C69.7073 8.39876 69.4409 8.1589 69.4409 7.74073C69.4409 7.24241 69.9323 6.8916 70.616 6.8916Z" fill="white"/>
<path d="M24.645 11.8564L25.8943 11.8564L25.8943 19.608L24.645 19.608L24.645 11.8564Z" fill="white"/>
<path d="M27.3994 14.6928L28.0818 11.8564L29.2957 11.8564L28.4689 14.6928L27.3994 14.6928Z" fill="white"/>
<path d="M34.0168 17.513L30.8364 17.513L30.0727 19.6081L28.7256 19.6081L31.738 11.8564L33.1375 11.8564L36.1499 19.6081L34.7799 19.6081L34.0168 17.513ZM31.1658 16.5462L33.6868 16.5462L32.444 13.1457L32.4092 13.1457L31.1658 16.5462Z" fill="white"/>
<path d="M42.655 16.7829C42.655 18.5391 41.6432 19.6674 40.1163 19.6674C39.7296 19.6862 39.3449 19.6035 39.0064 19.4286C38.6679 19.2537 38.3892 18.9938 38.2024 18.6787L38.1735 18.6787L38.1735 21.4779L36.9248 21.4779L36.9248 13.9567L38.1334 13.9567L38.1334 14.8966L38.1564 14.8966C38.3519 14.583 38.6352 14.3244 38.9763 14.1485C39.3174 13.9726 39.7034 13.8858 40.0934 13.8975C41.6373 13.8975 42.655 15.0313 42.655 16.7829ZM41.3715 16.7829C41.3715 15.6385 40.7351 14.8863 39.764 14.8863C38.8099 14.8863 38.1682 15.6543 38.1682 16.7829C38.1682 17.9216 38.8099 18.6842 39.764 18.6842C40.7351 18.6842 41.3715 17.9375 41.3715 16.7829Z" fill="white"/>
<path d="M49.3499 16.7829C49.3499 18.5391 48.3382 19.6674 46.8113 19.6674C46.4245 19.6862 46.0399 19.6035 45.7014 19.4286C45.3629 19.2537 45.0842 18.9938 44.8973 18.6787L44.8684 18.6787L44.8684 21.4779L43.6201 21.4779L43.6201 13.9567L44.8284 13.9567L44.8284 14.8966L44.8514 14.8966C45.0469 14.583 45.3302 14.3244 45.6713 14.1485C46.0124 13.9726 46.3984 13.8858 46.7883 13.8975C48.3323 13.8975 49.3499 15.0313 49.3499 16.7829ZM48.0665 16.7829C48.0665 15.6385 47.43 14.8863 46.4589 14.8863C45.5049 14.8863 44.8632 15.6543 44.8632 16.7829C44.8632 17.9216 45.5049 18.6842 46.4589 18.6842C47.43 18.6842 48.0665 17.9375 48.0665 16.7829Z" fill="white"/>
<path d="M53.7753 17.4487C53.8678 18.2173 54.6716 18.722 55.77 18.722C56.8224 18.722 57.5796 18.2173 57.5796 17.5242C57.5796 16.9226 57.1229 16.5623 56.0416 16.3154L54.9603 16.0731C53.4282 15.7294 52.7169 15.0637 52.7169 13.9836C52.7169 12.6462 53.9714 11.7275 55.7529 11.7275C57.5159 11.7275 58.7246 12.6462 58.7652 13.9836L57.5048 13.9836C57.4293 13.21 56.741 12.7431 55.7352 12.7431C54.7293 12.7431 54.041 13.2155 54.041 13.9031C54.041 14.4511 54.4806 14.7736 55.556 15.0204L56.4753 15.2301C58.1872 15.6062 58.8985 16.2454 58.8985 17.3792C58.8985 18.8293 57.6551 19.7376 55.6774 19.7376C53.8271 19.7376 52.5778 18.8507 52.4971 17.4486L53.7753 17.4487Z" fill="white"/>
<path d="M61.5937 12.6191L61.5937 13.9565L62.7505 13.9565L62.7505 14.8752L61.5937 14.8752L61.5937 17.991C61.5937 18.475 61.8253 18.7005 62.3338 18.7005C62.4711 18.6983 62.6082 18.6893 62.7446 18.6737L62.7446 19.5868C62.5159 19.6265 62.2835 19.6445 62.051 19.6405C60.8194 19.6405 60.3391 19.2107 60.3391 18.1147L60.3391 14.8752L59.4546 14.8752L59.4546 13.9565L60.3391 13.9565L60.3391 12.6191L61.5937 12.6191Z" fill="white"/>
<path d="M63.4199 16.7835C63.4199 15.005 64.5472 13.8877 66.305 13.8877C68.0687 13.8877 69.1907 15.005 69.1907 16.7835C69.1907 18.5665 68.0746 19.6789 66.305 19.6789C64.536 19.6789 63.4199 18.5664 63.4199 16.7835ZM67.9185 16.7835C67.9185 15.5634 67.3168 14.8435 66.305 14.8435C65.2932 14.8435 64.6922 15.5689 64.6922 16.7835C64.6922 18.0081 65.2932 18.7225 66.305 18.7225C67.3168 18.7225 67.9184 18.0081 67.9184 16.7835H67.9185Z" fill="white"/>
<path d="M70.2202 13.9566L71.4111 13.9566L71.4111 14.9185L71.44 14.9185C71.5206 14.6181 71.71 14.3526 71.9765 14.1666C72.243 13.9807 72.5702 13.8857 72.9032 13.8975C73.0471 13.897 73.1906 13.9115 73.331 13.9407L73.331 15.0258C73.1494 14.9742 72.9599 14.9505 72.77 14.9557C72.5886 14.9488 72.4077 14.9786 72.2398 15.0428C72.072 15.1071 71.921 15.2043 71.7974 15.3279C71.6738 15.4514 71.5804 15.5984 71.5237 15.7586C71.467 15.9188 71.4483 16.0886 71.4689 16.2562L71.4689 19.6082L70.2202 19.6082L70.2202 13.9566Z" fill="white"/>
<path d="M79.0875 17.949C78.9195 18.9749 77.8441 19.6789 76.4681 19.6789C74.6985 19.6789 73.6001 18.5774 73.6001 16.8103C73.6001 15.0373 74.7044 13.8877 76.4156 13.8877C78.0986 13.8877 79.157 14.9618 79.157 16.6756L79.157 17.073L74.8606 17.073L74.8606 17.1431C74.8407 17.3511 74.8688 17.5606 74.9428 17.7578C75.0168 17.9549 75.1351 18.1352 75.2899 18.2866C75.4447 18.438 75.6324 18.557 75.8405 18.6359C76.0486 18.7147 76.2724 18.7515 76.497 18.7438C76.7921 18.7695 77.0882 18.706 77.3413 18.5628C77.5944 18.4196 77.791 18.2043 77.9018 17.949L79.0875 17.949ZM74.8665 16.2623L77.9077 16.2623C77.919 16.0752 77.8885 15.8881 77.8181 15.7125C77.7478 15.5369 77.6392 15.3768 77.4991 15.2421C77.359 15.1074 77.1904 15.001 77.004 14.9297C76.8175 14.8584 76.6172 14.8236 76.4156 14.8276C76.2123 14.8265 76.0107 14.8628 75.8225 14.9345C75.6343 15.0061 75.4633 15.1117 75.3193 15.2451C75.1752 15.3784 75.0611 15.537 74.9834 15.7116C74.9056 15.8862 74.8659 16.0733 74.8665 16.2623Z" fill="white"/>
</g>
<defs>
<clipPath id="clip0_341_335">
<rect width="85" height="24.968" fill="white" transform="translate(0.995605 0.579102)"/>
</clipPath>
</defs>
</svg>
