<svg width="136" height="44" viewBox="0 0 136 44" fill="none" xmlns="http://www.w3.org/2000/svg">
<g clip-path="url(#clip0_210_835)">
<path d="M70.1716 41.0504C69.9395 40.9323 69.7626 40.7283 69.6786 40.4817C69.5945 40.2352 69.61 39.9656 69.7216 39.7303C69.7424 39.6836 69.7693 39.6399 69.8016 39.6003L71.5616 36.6004C71.8224 36.1625 71.9183 35.6459 71.8322 35.1436C71.746 34.6413 71.4834 34.1863 71.0916 33.8603C66.5116 30.1603 63.3016 23.5303 67.8116 15.8603C72.5416 7.86035 92.6116 0.340356 93.5516 0.0103562C93.7884 -0.0930387 94.0559 -0.100819 94.2983 -0.0113418C94.5406 0.0781355 94.7389 0.257923 94.8517 0.490352C94.9024 0.582904 94.9331 0.685135 94.9416 0.790355C95.0116 1.70036 98.3716 22.4203 93.5916 30.5003C89.8516 36.8203 84.0916 39.2704 77.5116 37.3004C77.2505 37.1951 77.0375 36.9968 76.9138 36.7439C76.7901 36.4909 76.7644 36.2011 76.8416 35.9304C76.9543 35.6668 77.1568 35.4517 77.4132 35.3235C77.6696 35.1953 77.9632 35.1623 78.2416 35.2304C82.1516 36.3204 87.7316 36.2304 91.8016 29.3704C95.5416 23.0504 93.6516 7.12036 92.9416 2.51036C88.4916 4.21036 73.4016 10.5804 69.6616 16.9004C64.8816 24.9804 70.6616 30.5903 72.4716 32.1103C73.2604 32.7586 73.7895 33.6691 73.9621 34.6753C74.1347 35.6816 73.9393 36.7163 73.4116 37.5904L71.6417 40.5904C71.5536 40.7571 71.4231 40.8977 71.2633 40.9978C71.1035 41.0979 70.9201 41.154 70.7316 41.1604C70.5389 41.1689 70.3469 41.1311 70.1716 41.0504ZM75.1716 32.6903C75.0471 32.6271 74.9373 32.5386 74.8491 32.4303C74.7609 32.3221 74.6963 32.1965 74.6596 32.0618C74.6229 31.9271 74.6147 31.7862 74.6358 31.6482C74.6568 31.5101 74.7065 31.378 74.7817 31.2604L76.2117 28.8504L71.9716 18.1504C71.8617 17.8918 71.8589 17.6001 71.9639 17.3394C72.0689 17.0788 72.2731 16.8705 72.5317 16.7604C72.6524 16.6982 72.7846 16.6613 72.9201 16.6519C73.0556 16.6425 73.1917 16.6609 73.3199 16.7058C73.4481 16.7507 73.5658 16.8213 73.6658 16.9132C73.7658 17.0051 73.8461 17.1164 73.9016 17.2404L73.9016 17.3004L77.5916 26.4403L80.5916 21.4403L77.0916 13.6403C77.0059 13.3747 77.0172 13.0873 77.1234 12.8291C77.2295 12.5709 77.4238 12.3588 77.6716 12.2304C77.9307 12.1335 78.2162 12.1349 78.4742 12.2344C78.7322 12.334 78.9448 12.5246 79.0716 12.7704L81.9116 19.2004L84.3917 15.0204L82.5516 10.6403C82.4673 10.375 82.4804 10.0882 82.5885 9.83157C82.6967 9.57495 82.8928 9.36532 83.1417 9.24035C83.4012 9.14995 83.6843 9.15461 83.9407 9.2535C84.1971 9.3524 84.4101 9.53909 84.5416 9.78034L85.7616 12.7004L87.9617 8.98036C88.0198 8.85633 88.1029 8.74558 88.2056 8.65498C88.3084 8.56438 88.4286 8.49586 88.559 8.45367C88.6893 8.41148 88.8269 8.3965 88.9633 8.40969C89.0996 8.42288 89.2318 8.46395 89.3517 8.53034L89.4316 8.53034C89.6638 8.64844 89.8407 8.85245 89.9247 9.09896C90.0088 9.34548 89.9933 9.61506 89.8816 9.85035C89.8609 9.89708 89.834 9.94081 89.8016 9.98036L87.6017 13.7004L90.8616 13.1804C91.1362 13.1586 91.409 13.2397 91.627 13.4079C91.8451 13.5761 91.9929 13.8193 92.0416 14.0904C92.0499 14.3779 91.9528 14.6585 91.7686 14.8795C91.5845 15.1005 91.3259 15.2466 91.0416 15.2904L86.2416 15.9304L83.7316 20.2004L90.8016 19.4804C90.931 19.4558 91.064 19.457 91.1929 19.4839C91.3218 19.5108 91.4441 19.5629 91.5529 19.6373C91.6616 19.7116 91.7545 19.8067 91.8264 19.917C91.8983 20.0274 91.9476 20.1509 91.9716 20.2803C91.9716 20.2803 91.9716 20.3603 91.9716 20.3903C91.9914 20.529 91.9834 20.6702 91.9482 20.8057C91.9131 20.9413 91.8514 21.0685 91.7668 21.1801C91.6822 21.2916 91.5763 21.3853 91.4553 21.4558C91.3342 21.5262 91.2005 21.5719 91.0616 21.5904L82.3816 22.5303L79.3816 27.5303L89.3816 26.0803C89.6564 26.0557 89.9304 26.1342 90.1504 26.3006C90.3704 26.467 90.5206 26.7093 90.5716 26.9804C90.5777 27.2674 90.4799 27.5469 90.2961 27.7674C90.1123 27.9879 89.855 28.1346 89.5716 28.1804L77.9516 29.9403L76.5816 32.2604C76.4936 32.4271 76.3631 32.5677 76.2033 32.6678C76.0435 32.7679 75.8601 32.8239 75.6716 32.8303C75.4798 32.8279 75.2913 32.78 75.1216 32.6903L75.1716 32.6903Z" fill="white"/>
<path d="M57.7316 40.1802L56.5516 38.0802C56.1964 37.4609 56.0652 36.7381 56.1799 36.0334C56.2946 35.3287 56.6483 34.685 57.1816 34.2102C58.7428 32.9558 59.7937 31.1758 60.1379 29.2028C60.482 27.2299 60.0959 25.1991 59.0516 23.4902C56.5416 19.0302 46.4016 14.4902 43.4116 13.3302C42.9316 16.5902 41.6616 27.8302 44.1716 32.3302C46.9116 37.1802 50.6616 37.2402 53.2816 36.4702C53.4752 36.4053 53.6867 36.4198 53.8695 36.5108C54.0524 36.6018 54.1916 36.7616 54.2566 36.9552C54.3216 37.1488 54.307 37.3603 54.216 37.5432C54.1251 37.726 53.9652 37.8653 53.7716 37.9302C49.3516 39.3202 45.4816 37.5902 42.9716 33.1302C39.7616 27.4202 41.9716 12.7802 42.0716 12.1302C42.0768 11.9587 42.1486 11.7959 42.2718 11.6764C42.395 11.5569 42.56 11.4902 42.7316 11.4902C42.8074 11.4995 42.8815 11.5197 42.9516 11.5502C43.5816 11.7902 57.0716 17.1002 60.2516 22.7502C61.5068 24.7649 61.9764 27.1712 61.5706 29.5099C61.1648 31.8487 59.9121 33.9562 58.0516 35.4302C57.7861 35.6672 57.6097 35.9878 57.5515 36.3388C57.4933 36.6899 57.5568 37.0503 57.7316 37.3602L58.9116 39.4602C58.9643 39.539 59.0009 39.6274 59.0193 39.7203C59.0378 39.8132 59.0377 39.9088 59.0192 40.0017C59.0006 40.0946 58.9638 40.183 58.9111 40.2616C58.8583 40.3403 58.7905 40.4078 58.7116 40.4602C58.5991 40.5266 58.4721 40.5643 58.3416 40.5702C58.2145 40.5649 58.0912 40.526 57.984 40.4575C57.8769 40.389 57.7898 40.2933 57.7316 40.1802ZM54.4116 34.2802L53.4916 32.6402L45.6916 31.4002C45.5031 31.3565 45.3354 31.2491 45.217 31.096C45.0985 30.943 45.0366 30.7537 45.0416 30.5602C45.071 30.3722 45.169 30.2017 45.3168 30.0816C45.4645 29.9616 45.6515 29.9005 45.8416 29.9102L52.5316 30.9102L50.5316 27.3602L44.7316 26.7302C44.6354 26.718 44.5425 26.6866 44.4585 26.6381C44.3745 26.5895 44.3011 26.5247 44.2424 26.4474C44.1837 26.3702 44.1411 26.282 44.1169 26.188C44.0927 26.0941 44.0875 25.9962 44.1016 25.9002C44.1054 25.8109 44.1269 25.7232 44.1647 25.6422C44.2024 25.5611 44.2558 25.4884 44.3218 25.428C44.3877 25.3676 44.4649 25.3208 44.549 25.2903C44.633 25.2598 44.7223 25.2462 44.8116 25.2502L44.8916 25.2502L49.6416 25.7602L47.9416 22.7602L44.7116 22.3102C44.5222 22.266 44.3544 22.1566 44.2375 22.0013C44.1205 21.8459 44.0618 21.6544 44.0716 21.4602C44.0988 21.2738 44.1952 21.1045 44.3416 20.9859C44.488 20.8674 44.6736 20.8082 44.8616 20.8202L47.0516 21.1802L45.5316 18.4902C45.4771 18.4125 45.4388 18.3247 45.4188 18.2319C45.3989 18.1392 45.3977 18.0433 45.4154 17.9501C45.4331 17.8569 45.4694 17.7682 45.5219 17.6892C45.5745 17.6102 45.6424 17.5425 45.7216 17.4902L45.7816 17.4902C45.856 17.4404 45.9397 17.406 46.0277 17.389C46.1157 17.3721 46.2062 17.3729 46.2939 17.3916C46.3815 17.4102 46.4645 17.4463 46.538 17.4976C46.6115 17.5489 46.6739 17.6144 46.7216 17.6902C46.7425 17.7177 46.7593 17.748 46.7716 17.7802L48.2416 20.4002L49.0616 18.3402C49.1016 18.2491 49.1594 18.1668 49.2316 18.0981C49.3037 18.0295 49.3888 17.976 49.4819 17.9406C49.575 17.9052 49.6742 17.8887 49.7737 17.8921C49.8733 17.8955 49.9711 17.9186 50.0616 17.9602C50.2331 18.0552 50.3659 18.2072 50.4371 18.3898C50.5084 18.5724 50.5135 18.7742 50.4516 18.9602L49.2216 22.0502L50.8816 25.0502L52.7316 20.4902C52.8123 20.3207 52.9536 20.1877 53.1277 20.1173C53.3017 20.047 53.4958 20.0444 53.6716 20.1102C53.8463 20.2021 53.9825 20.3533 54.0558 20.5365C54.1291 20.7198 54.1347 20.9232 54.0716 21.1102L51.7316 26.5902L53.7316 30.1302L56.2116 23.6702C56.2747 23.5021 56.4009 23.3652 56.5634 23.2887C56.7258 23.2121 56.9117 23.2019 57.0816 23.2602L57.1516 23.2602C57.3357 23.3413 57.4802 23.4922 57.5533 23.6796C57.6264 23.8671 57.6222 24.0759 57.5416 24.2602L54.6916 31.8202L55.6916 33.5202C55.7832 33.6878 55.8084 33.8838 55.762 34.0691C55.7157 34.2544 55.6013 34.4155 55.4416 34.5202C55.3261 34.5881 55.1955 34.626 55.0616 34.6302C54.9335 34.6239 54.8094 34.5835 54.7022 34.5132C54.5949 34.4429 54.5084 34.3452 54.4516 34.2302L54.4116 34.2802Z" fill="white" stroke="white" stroke-width="0.3"/>
<path d="M89.2715 41.2002L126.551 41.2002C126.817 41.2002 127.071 41.3056 127.259 41.4931C127.446 41.6806 127.551 41.935 127.551 42.2002C127.551 42.4654 127.446 42.7198 127.259 42.9073C127.071 43.0949 126.817 43.2002 126.551 43.2002L89.2715 43.2002C89.0063 43.2002 88.7519 43.0949 88.5644 42.9073C88.3768 42.7198 88.2715 42.4654 88.2715 42.2002C88.2715 41.935 88.3768 41.6806 88.5644 41.4931C88.7519 41.3056 89.0063 41.2002 89.2715 41.2002Z" fill="white"/>
<path d="M130.472 41.2002L134.392 41.2002C134.657 41.2002 134.911 41.3056 135.099 41.4931C135.286 41.6806 135.392 41.935 135.392 42.2002C135.392 42.4654 135.286 42.7198 135.099 42.9073C134.911 43.0949 134.657 43.2002 134.392 43.2002L130.472 43.2002C130.206 43.2002 129.952 43.0949 129.765 42.9073C129.577 42.7198 129.472 42.4654 129.472 42.2002C129.472 41.935 129.577 41.6806 129.765 41.4931C129.952 41.3056 130.206 41.2002 130.472 41.2002Z" fill="white"/>
<path d="M8.83154 41.2002L46.1115 41.2002C46.3768 41.2002 46.6311 41.3056 46.8186 41.4931C47.0062 41.6806 47.1115 41.935 47.1115 42.2002C47.1115 42.4654 47.0062 42.7198 46.8186 42.9073C46.6311 43.0949 46.3768 43.2002 46.1115 43.2002L8.83154 43.2002C8.56633 43.2002 8.31197 43.0949 8.12444 42.9073C7.9369 42.7198 7.83154 42.4654 7.83154 42.2002C7.83154 41.935 7.9369 41.6806 8.12444 41.4931C8.31197 41.3056 8.56633 41.2002 8.83154 41.2002Z" fill="white"/>
<path d="M0.981445 41.2002L4.90145 41.2002C5.16666 41.2002 5.42102 41.3056 5.60855 41.4931C5.79609 41.6806 5.90145 41.935 5.90145 42.2002C5.90145 42.4654 5.79609 42.7198 5.60855 42.9073C5.42102 43.0949 5.16666 43.2002 4.90145 43.2002L0.981445 43.2002C0.716229 43.2002 0.461874 43.0949 0.274338 42.9073C0.0868014 42.7198 -0.0185547 42.4654 -0.0185547 42.2002C-0.0185547 41.935 0.0868014 41.6806 0.274338 41.4931C0.461874 41.3056 0.716229 41.2002 0.981445 41.2002Z" fill="white"/>
</g>
<defs>
<clipPath id="clip0_210_835">
<rect width="135.37" height="43.17" fill="white" transform="translate(0.00146484)"/>
</clipPath>
</defs>
</svg>
