<svg width="136" height="44" viewBox="0 0 136 44" fill="none" xmlns="http://www.w3.org/2000/svg">
<g clip-path="url(#clip0_206_79)">
<path d="M70.1702 41.0504C69.9381 40.9323 69.7612 40.7283 69.6771 40.4817C69.5931 40.2352 69.6085 39.9656 69.7202 39.7303C69.7409 39.6836 69.7678 39.6399 69.8002 39.6003L71.5602 36.6004C71.8209 36.1625 71.9169 35.6459 71.8307 35.1436C71.7445 34.6414 71.4819 34.1863 71.0902 33.8603C66.5102 30.1603 63.3002 23.5303 67.8102 15.8603C72.5402 7.86035 92.6102 0.340356 93.5502 0.0103562C93.7869 -0.0930387 94.0545 -0.100819 94.2968 -0.0113418C94.5391 0.0781355 94.7375 0.257923 94.8502 0.490352C94.901 0.582903 94.9316 0.685135 94.9402 0.790355C95.0102 1.70035 98.3702 22.4203 93.5902 30.5003C89.8502 36.8203 84.0902 39.2704 77.5102 37.3004C77.249 37.1951 77.0361 36.9968 76.9124 36.7439C76.7887 36.4909 76.7629 36.2011 76.8402 35.9304C76.9528 35.6668 77.1554 35.4517 77.4118 35.3235C77.6681 35.1953 77.9617 35.1623 78.2402 35.2304C82.1502 36.3204 87.7302 36.2304 91.8002 29.3704C95.5402 23.0504 93.6502 7.12036 92.9402 2.51036C88.4902 4.21036 73.4002 10.5804 69.6602 16.9004C64.8802 24.9804 70.6602 30.5903 72.4702 32.1103C73.2589 32.7586 73.788 33.6691 73.9606 34.6753C74.1332 35.6816 73.9378 36.7163 73.4102 37.5904L71.6402 40.5904C71.5522 40.7571 71.4217 40.8977 71.2619 40.9978C71.1021 41.0979 70.9186 41.154 70.7302 41.1604C70.5374 41.1689 70.3454 41.1311 70.1702 41.0504V41.0504ZM75.1702 32.6903C75.0457 32.6271 74.9358 32.5386 74.8476 32.4303C74.7594 32.3221 74.6949 32.1965 74.6581 32.0618C74.6214 31.9271 74.6133 31.7862 74.6343 31.6482C74.6553 31.5101 74.705 31.378 74.7802 31.2604L76.2102 28.8504L71.9702 18.1504C71.8602 17.8918 71.8574 17.6001 71.9624 17.3394C72.0674 17.0788 72.2717 16.8705 72.5302 16.7604V16.7604C72.651 16.6982 72.7832 16.6613 72.9187 16.6519C73.0542 16.6425 73.1902 16.6609 73.3184 16.7058C73.4466 16.7507 73.5643 16.8213 73.6643 16.9132C73.7643 17.0051 73.8446 17.1164 73.9002 17.2404L73.9002 17.3004L77.5902 26.4403L80.5902 21.4403L77.0902 13.6403C77.0045 13.3747 77.0157 13.0873 77.1219 12.8291C77.2281 12.5709 77.4224 12.3588 77.6702 12.2304C77.9292 12.1335 78.2147 12.1349 78.4728 12.2344C78.7308 12.3339 78.9433 12.5246 79.0702 12.7704L81.9102 19.2004L84.3902 15.0204L82.5502 10.6403C82.4658 10.375 82.4789 10.0882 82.587 9.83157C82.6952 9.57495 82.8913 9.36532 83.1402 9.24035C83.3997 9.14995 83.6829 9.15461 83.9393 9.2535C84.1956 9.3524 84.4086 9.53909 84.5402 9.78034L85.7602 12.7004L87.9602 8.98036C88.0184 8.85633 88.1014 8.74558 88.2042 8.65498C88.3069 8.56438 88.4272 8.49586 88.5575 8.45367C88.6878 8.41148 88.8255 8.3965 88.9618 8.40969C89.0982 8.42289 89.2304 8.46395 89.3502 8.53034L89.4302 8.53034C89.6623 8.64844 89.8392 8.85245 89.9233 9.09896C90.0073 9.34548 89.9918 9.61506 89.8802 9.85035C89.8595 9.89708 89.8326 9.94081 89.8002 9.98036L87.6002 13.7004L90.8602 13.1804C91.1347 13.1586 91.4075 13.2397 91.6256 13.4079C91.8437 13.5761 91.9914 13.8193 92.0402 14.0904C92.0484 14.3779 91.9513 14.6585 91.7672 14.8795C91.583 15.1005 91.3245 15.2466 91.0402 15.2904L86.2402 15.9304L83.7302 20.2004L90.8002 19.4804C90.9296 19.4558 91.0625 19.457 91.1914 19.4839C91.3204 19.5108 91.4427 19.5629 91.5514 19.6373C91.6601 19.7116 91.7531 19.8067 91.8249 19.917C91.8968 20.0274 91.9462 20.1509 91.9702 20.2803C91.9702 20.2803 91.9702 20.3603 91.9702 20.3903C91.9899 20.529 91.9819 20.6702 91.9468 20.8057C91.9116 20.9413 91.85 21.0685 91.7653 21.1801C91.6807 21.2916 91.5748 21.3853 91.4538 21.4558C91.3328 21.5262 91.199 21.5719 91.0602 21.5904V21.5904L82.3802 22.5303L79.3802 27.5303L89.3802 26.0803C89.6549 26.0557 89.929 26.1342 90.1489 26.3006C90.3689 26.467 90.5191 26.7093 90.5702 26.9804C90.5763 27.2674 90.4784 27.5469 90.2946 27.7674C90.1109 27.9879 89.8536 28.1346 89.5702 28.1804L77.9502 29.9403L76.5802 32.2604C76.4922 32.4271 76.3617 32.5677 76.2019 32.6678C76.0421 32.7679 75.8586 32.8239 75.6702 32.8303C75.4783 32.8279 75.2898 32.78 75.1202 32.6903L75.1702 32.6903Z" fill="#816136"/>
<path d="M57.7301 40.1802L56.5501 38.0802C56.195 37.4609 56.0637 36.7382 56.1784 36.0334C56.2931 35.3287 56.6468 34.685 57.1801 34.2102C58.7413 32.9558 59.7922 31.1758 60.1364 29.2028C60.4806 27.2299 60.0944 25.1991 59.0501 23.4902C56.5401 19.0302 46.4001 14.4902 43.4101 13.3302C42.9301 16.5902 41.6601 27.8302 44.1701 32.3302C46.9101 37.1802 50.6601 37.2402 53.2801 36.4702C53.4737 36.4053 53.6852 36.4198 53.8681 36.5108C54.0509 36.6018 54.1902 36.7616 54.2551 36.9552C54.3201 37.1488 54.3055 37.3603 54.2146 37.5432C54.1236 37.726 53.9637 37.8653 53.7701 37.9302C49.3501 39.3202 45.4801 37.5902 42.9701 33.1302C39.7601 27.4202 41.9701 12.7802 42.0701 12.1302C42.0753 11.9587 42.1472 11.7959 42.2704 11.6764C42.3936 11.5569 42.5585 11.4902 42.7301 11.4902C42.806 11.4995 42.8801 11.5197 42.9501 11.5502C43.5801 11.7902 57.0701 17.1002 60.2501 22.7502C61.5054 24.7649 61.9749 27.1712 61.5691 29.5099C61.1634 31.8487 59.9107 33.9562 58.0501 35.4302C57.7847 35.6672 57.6082 35.9878 57.55 36.3388C57.4918 36.6899 57.5554 37.0503 57.7301 37.3602L58.9101 39.4602C58.9628 39.539 58.9994 39.6274 59.0179 39.7203C59.0363 39.8132 59.0363 39.9088 59.0177 40.0017C58.9991 40.0946 58.9624 40.183 58.9096 40.2616C58.8568 40.3403 58.789 40.4078 58.7101 40.4602C58.5976 40.5266 58.4706 40.5643 58.3401 40.5702C58.2131 40.5649 58.0897 40.526 57.9825 40.4575C57.8754 40.389 57.7883 40.2933 57.7301 40.1802ZM54.4101 34.2802L53.4901 32.6402L45.6901 31.4002C45.5016 31.3565 45.334 31.2491 45.2155 31.096C45.0971 30.943 45.0351 30.7537 45.0401 30.5602C45.0695 30.3722 45.1676 30.2017 45.3153 30.0816C45.4631 29.9616 45.65 29.9005 45.8401 29.9102L52.5301 30.9102L50.5301 27.3602L44.7301 26.7302C44.6339 26.718 44.5411 26.6866 44.4571 26.6381C44.3731 26.5895 44.2996 26.5247 44.2409 26.4474C44.1823 26.3702 44.1396 26.282 44.1154 26.188C44.0913 26.0941 44.0861 25.9962 44.1001 25.9002C44.104 25.8109 44.1254 25.7232 44.1632 25.6422C44.201 25.5611 44.2544 25.4884 44.3203 25.428C44.3863 25.3676 44.4635 25.3208 44.5475 25.2903C44.6316 25.2598 44.7208 25.2462 44.8101 25.2502L44.8901 25.2502L49.6401 25.7602L47.9401 22.7602L44.7101 22.3102C44.5208 22.266 44.353 22.1566 44.236 22.0013C44.119 21.8459 44.0603 21.6544 44.0701 21.4602C44.0974 21.2738 44.1938 21.1045 44.3401 20.9859C44.4865 20.8674 44.6721 20.8082 44.8601 20.8202L47.0501 21.1802L45.5301 18.4902C45.4757 18.4125 45.4373 18.3247 45.4174 18.2319C45.3974 18.1392 45.3962 18.0433 45.414 17.9501C45.4317 17.8569 45.4679 17.7682 45.5205 17.6892C45.5731 17.6102 45.641 17.5425 45.7201 17.4902L45.7801 17.4902C45.8546 17.4404 45.9383 17.406 46.0263 17.389C46.1143 17.3721 46.2047 17.3729 46.2924 17.3916C46.38 17.4102 46.4631 17.4463 46.5365 17.4976C46.61 17.5489 46.6724 17.6144 46.7201 17.6902C46.741 17.7177 46.7579 17.748 46.7701 17.7802L48.2401 20.4002L49.0601 18.3402C49.1002 18.2491 49.1579 18.1668 49.2301 18.0981C49.3023 18.0295 49.3874 17.976 49.4805 17.9406C49.5735 17.9052 49.6727 17.8887 49.7723 17.8921C49.8718 17.8955 49.9697 17.9186 50.0601 17.9602C50.2316 18.0552 50.3645 18.2072 50.4357 18.3898C50.5069 18.5724 50.512 18.7742 50.4501 18.9602L49.2201 22.0502L50.8801 25.0502L52.7301 20.4902C52.8108 20.3207 52.9522 20.1877 53.1262 20.1173C53.3002 20.047 53.4943 20.0444 53.6701 20.1102C53.8448 20.2021 53.981 20.3533 54.0544 20.5365C54.1277 20.7198 54.1332 20.9232 54.0701 21.1102L51.7301 26.5902L53.7301 30.1302L56.2101 23.6702C56.2733 23.5021 56.3995 23.3652 56.5619 23.2887C56.7244 23.2121 56.9103 23.2019 57.0801 23.2602L57.1501 23.2602C57.3343 23.3413 57.4787 23.4922 57.5518 23.6796C57.625 23.8671 57.6207 24.0759 57.5401 24.2602L54.6901 31.8202L55.6901 33.5202C55.7817 33.6878 55.8069 33.8838 55.7606 34.0691C55.7142 34.2544 55.5998 34.4155 55.4401 34.5202C55.3247 34.5881 55.194 34.626 55.0601 34.6302C54.932 34.6239 54.808 34.5835 54.7007 34.5132C54.5935 34.4429 54.507 34.3452 54.4501 34.2302L54.4101 34.2802Z" fill="#816136" stroke="#816136" stroke-width="0.4"/>
<path d="M89.27 41.2002L126.55 41.2002C126.815 41.2002 127.07 41.3056 127.257 41.4931C127.445 41.6806 127.55 41.935 127.55 42.2002C127.55 42.4654 127.445 42.7198 127.257 42.9073C127.07 43.0949 126.815 43.2002 126.55 43.2002L89.27 43.2002C89.0048 43.2002 88.7504 43.0949 88.5629 42.9073C88.3754 42.7198 88.27 42.4654 88.27 42.2002C88.27 41.935 88.3754 41.6806 88.5629 41.4931C88.7504 41.3056 89.0048 41.2002 89.27 41.2002Z" fill="#816136"/>
<path d="M130.47 41.2002L134.39 41.2002C134.655 41.2002 134.91 41.3056 135.097 41.4931C135.285 41.6806 135.39 41.935 135.39 42.2002C135.39 42.4654 135.285 42.7198 135.097 42.9073C134.91 43.0949 134.655 43.2002 134.39 43.2002L130.47 43.2002C130.205 43.2002 129.951 43.0949 129.763 42.9073C129.576 42.7198 129.47 42.4654 129.47 42.2002C129.47 41.935 129.576 41.6806 129.763 41.4931C129.951 41.3056 130.205 41.2002 130.47 41.2002Z" fill="#816136"/>
<path d="M8.83008 41.2002L46.1101 41.2002C46.3753 41.2002 46.6296 41.3056 46.8172 41.4931C47.0047 41.6806 47.1101 41.935 47.1101 42.2002C47.1101 42.4654 47.0047 42.7198 46.8172 42.9073C46.6296 43.0949 46.3753 43.2002 46.1101 43.2002L8.83008 43.2002C8.56486 43.2002 8.31051 43.0949 8.12297 42.9073C7.93543 42.7198 7.83008 42.4654 7.83008 42.2002C7.83008 41.935 7.93543 41.6806 8.12297 41.4931C8.31051 41.3056 8.56486 41.2002 8.83008 41.2002Z" fill="#816136"/>
<path d="M0.97998 41.2002L4.89998 41.2002C5.1652 41.2002 5.41955 41.3056 5.60709 41.4931C5.79462 41.6806 5.89998 41.935 5.89998 42.2002C5.89998 42.4654 5.79462 42.7198 5.60709 42.9073C5.41955 43.0949 5.1652 43.2002 4.89998 43.2002L0.97998 43.2002C0.714764 43.2002 0.460409 43.0949 0.272873 42.9073C0.0853366 42.7198 -0.0200195 42.4654 -0.0200195 42.2002C-0.0200195 41.935 0.0853366 41.6806 0.272873 41.4931C0.460409 41.3056 0.714764 41.2002 0.97998 41.2002Z" fill="#816136"/>
</g>
<defs>
<clipPath id="clip0_206_79">
<rect width="135.37" height="43.17" fill="white"/>
</clipPath>
</defs>
</svg>
