<svg width="1440" height="507" viewBox="0 0 1440 507" fill="none" xmlns="http://www.w3.org/2000/svg">
<rect y="100.999" width="1441" height="409" fill="#A2A729"/>
<path d="M1676.5 73.6342C1675.09 69.8621 1676.82 67.2228 1668.02 66.0876C1668.02 62.6933 1665.26 62.8807 1657.87 60.5393C1655.42 60.7558 1652.91 60.458 1650.8 59.6983C1648.68 58.9386 1647.09 57.7657 1646.3 56.3857C1646.25 56.5981 1646.25 56.8145 1646.3 57.0269C1641.81 56.6479 1645.67 52.9911 1641.81 56.0821C1639.24 56.5714 1638.6 51.1778 1636.99 55.5144C1631.85 52.495 1630.56 53.0602 1624.13 53.5478C1616.43 48.0759 1617.71 52.9794 1610.83 53.5422C1615.32 62.3317 1604.4 57.0471 1597.01 55.0451C1591.87 58.8144 1584.15 59.6786 1583.19 57.4908C1583.84 56.2841 1577.86 57.4885 1577.41 58.3558C1575.29 54.2062 1572.4 54.205 1571.75 59.4849C1568.22 60.6149 1563.4 59.1796 1557.16 57.9702C1558.77 59.5549 1547.65 59.9274 1543.15 57.0968C1538.66 54.2663 1536.72 60.8657 1529.85 57.0913C1526.63 64.1804 1523.42 60.1058 1517 58.1419C1516.16 59.537 1508.13 57.4593 1504.59 60.2865C1497.07 58.3221 1498.68 62.4715 1493.02 63.676C1488.4 65.0022 1484.26 66.8306 1480.8 69.0641C1471.36 69.2487 1470.52 74.7171 1469.23 75.9234C1469.87 78.9409 1467.3 78.3741 1465.05 77.5434C1462.99 77.5426 1460.42 77.0512 1460.87 78.9371C1457.7 80.6552 1453.82 81.8619 1449.62 82.4399C1445.69 83.2663 1441.82 84.2088 1438.05 85.2637C1434.61 86.7076 1430.35 87.314 1426.16 86.9559C1424.55 85.4466 1422.3 88.0857 1420.38 87.3306C1419.09 85.8969 1416.07 87.5928 1414.46 87.7053C1409.77 87.6699 1405.09 87.8572 1400.45 88.2652C1394.99 87.584 1392.74 89.2048 1386.51 88.5233C1382.97 90.4076 1376.67 88.7078 1372.17 88.7059C1369.47 90.5905 1363.5 89.1926 1358.03 88.7C1353.24 88.3401 1348.4 88.2371 1343.57 88.3922C1337.79 85.8629 1333.81 87.8224 1329.11 88.009C1325.46 83.6702 1329.12 84.2375 1322.69 87.8177C1320.57 86.874 1326.35 90.5725 1316.26 87.6265C1314.66 86.4189 1311.44 92.716 1305.85 91.5822C1302.95 92.1467 1297.17 90.3716 1293.76 93.0103C1290.35 95.6489 1284.32 93.0063 1280.27 92.4389C1278.98 93.4567 1270.31 89.7947 1266.13 90.4341C1263.43 92.0547 1254.11 89.2976 1251.54 87.7125C1250.27 78.8489 1243.64 87.332 1236.89 84.7646C1235.27 83.5401 1233.04 82.6399 1230.51 82.1866C1227.98 81.7333 1225.27 81.7491 1222.76 82.2317C1217.3 77.9676 1206.88 85.0537 1209.9 80.7177C1211.38 80.3412 1201.74 81.0915 1203.48 80.0362C1201.36 78.0741 1194.29 78.2597 1197.05 79.4678C1192.66 80.0894 1188.08 80.0224 1183.75 79.2736C1183.74 83.7994 1174.75 78.4401 1170.9 77.4956C1164.99 72.2885 1163.7 74.0983 1158.04 76.5474C1153.67 80.581 1147.44 70.3954 1145.19 75.5991C1140.89 73.2212 1133.5 72.7656 1132.34 74.7263C1131.13 74.8552 1129.95 75.044 1128.8 75.2905C1128.8 75.0265 1127.71 74.6489 1125.46 74.3462C1120.77 74.0803 1119.04 68.8749 1119.04 70.9492C1117.56 68.9874 1111.97 70.3051 1105.02 73.2062C1100.53 71.4317 1095.9 75.8424 1091.4 72.4462C1089.14 72.939 1086.72 73.12 1084.33 72.9751C1081.93 72.8302 1079.62 72.3633 1077.58 71.6107C1074.82 73.5707 1070.32 71.0419 1070.64 71.2306C1074.18 66.8949 1062.8 68.8513 1063.77 70.7374C1054.9 73.8641 1050.91 70.0909 1049.95 69.2231C1047.72 68.6557 1045.74 67.8014 1044.15 66.7236C1042.56 65.6457 1041.4 64.3718 1040.77 62.9962C1032.6 64.6145 1034.67 55.4506 1034.35 55.0733C1030.36 51.7904 1029.85 49.4142 1027.92 48.2065C1027.47 48.9606 1021.5 48.6564 1019.89 45.2613C1018.61 44.1293 1009.8 50.4618 1005.43 50.6485C1001.06 50.8353 995.463 55.3588 990.965 55.4323C987.941 59.2025 982.288 55.4287 976.501 59.4995C973.608 60.1394 966.729 63.2669 962.038 62.7747C958.501 64.7721 953.228 67.8625 947.575 65.3332C936.975 60.5012 939.538 69.1014 933.113 67.0243C936.522 64.084 918.326 73.0526 918.652 67.7726C917.689 66.9047 906.315 65.5045 904.192 67.5779C896.8 69.0835 895.069 64.5569 889.733 66.4404C888.769 66.44 885.883 59.6501 875.275 64.0583C872.573 66.999 866.148 64.9974 862.936 62.6577C861.514 61.501 859.399 60.7023 857.016 60.4216C854.632 60.1409 852.157 60.3988 850.084 61.1437C849.247 63.0291 848.476 63.1042 843.979 60.3869C839.478 63.289 834.98 62.4574 837.553 59.6299C831.643 56.7988 830.493 49.0666 827.792 50.6496C825.675 46.236 820.724 49.4397 816.871 45.3649C811.085 48.3042 808.004 43.664 804.662 42.9083C801.579 41.5115 800.292 42.6424 791.809 42.4503C791.171 37.6225 785.381 44.0316 778.12 43.0103C770.41 40.5556 771.693 43.1962 763.98 43.6455C762.246 41.9476 749.844 39.8681 749.713 43.6395C750.162 44.394 742.969 38.432 735.382 42.1249C730.562 41.9343 723.493 41.2525 721.247 38.1589C724.337 31.3715 715.784 38.1566 715.786 35.8937C713.863 30.2357 707.625 34.08 703.45 31.9285C688.351 27.3963 696.508 32.3027 692.526 29.925C695.229 25.5135 689.64 22.3808 682.244 29.2795C682.242 30.4864 672.734 26.8241 671.318 29.539C661.355 30.5908 660.394 27.7618 659.106 30.2127C657.499 31.2304 652.166 29.6441 644.774 30.7724C645.737 31.5271 630.631 35.6695 627.1 30.765C619.828 30.9312 612.549 30.5479 605.443 29.6245C607.051 28.3806 602.552 28.1147 599.017 28.5658C596.254 28.1875 591.628 26.4129 592.913 27.6204C588.284 26.6138 583.477 25.9159 578.583 25.54C573.637 22.4453 568.173 23.7631 564.124 23.7614C562.384 28.9276 552.431 18.8535 549.215 22.5105C539.894 24.5809 536.363 20.0536 534.112 21.7499C527.17 23.067 526.724 18.9181 518.688 21.7434C512.902 23.8153 510.013 20.0426 502.749 22.4156C499.406 23.1685 501.788 18.6437 496.001 22.0356C495.234 17.3209 494.912 18.2637 489.575 21.5426C481.093 20.2191 483.144 25.8018 476.722 20.7075C478.325 25.234 462.901 24.9258 464.383 20.4006C462.262 20.3997 457.121 19.7564 451.53 19.2638C454.552 17.4925 437.391 19.2579 439.127 18.6929C437.074 14.4679 435.59 20.6903 432.7 18.313C430.262 13.8993 435.589 22.5761 426.274 17.8578C423.102 14.3252 418.545 11.2854 412.978 8.98912C408.167 -0.818824 409.446 6.23445 398.651 3.89159C388.367 4.64158 391.131 4.52959 383.742 1.99958C379.244 1.9977 368.123 4.51995 368.639 2.63441C360.739 -3.40332 361.375 4.32855 353.662 5.19277C348.523 3.00314 341.322 5.45161 339.199 8.76965C335.209 10.7029 330.563 12.1152 325.57 12.9126C321.321 14.0319 317.235 15.3547 313.356 16.8676C309.306 17.507 307.38 16.2993 306.929 16.8649C306.479 17.4304 302.754 13.8459 300.502 16.8622C297.611 16.1067 291.825 18.6312 287.648 17.2339C280.064 18.4376 278.974 15.156 274.794 17.7943C268.364 21.5631 263.74 17.7897 261.94 18.3546C257.762 18.8055 256.928 16.9194 255.512 19.2948C251.977 20.3116 247.479 18.9143 249.084 21.1779C244.261 24.1931 246.187 27.5882 236.222 31.167C233.385 31.4877 230.734 32.2267 228.518 33.3144C226.303 34.4021 224.595 35.8028 223.556 37.3847C225.928 43.9858 205.689 37.1132 210.7 39.9439C212.949 39.9449 199.9 42.8435 198.296 39.9387C192.827 47.4795 187.246 35.7854 185.958 38.1232C175.68 32.4617 174.072 34.5353 173.428 35.2893C169.261 34.0978 164.969 33.063 160.577 32.1913C155.116 30.5673 156.596 28.9839 147.726 29.4327C145.155 29.4317 149.459 31.8849 143.034 29.9965C142.245 30.0541 141.446 30.0538 140.656 29.9955C140.656 29.9955 140.013 30.3724 138.728 30.6358C133.262 33.4622 131.856 24.9757 127.351 32.1397C122.98 33.2693 116.425 33.0026 116.103 33.7567C106.785 32.8099 113.339 33.4538 104.854 35.4492C96.8182 38.3499 97.9112 37.8978 93.7344 37.2171C89.5576 36.5365 89.7509 35.8954 89.235 37.9696C88.7019 38.3569 88.008 38.6573 87.22 38.842C86.432 39.0266 85.5764 39.0891 84.7353 39.0237C86.6587 44.3046 75.7364 40.604 73.6763 44.6763C71.1674 44.9414 68.8497 45.6384 67.0178 46.6785C65.1859 47.7187 63.9224 49.0551 63.3882 50.5179C60.816 52.214 59.6571 54.665 53.4219 55.9824C51.6233 54.9256 46.1561 60.2034 42.8138 60.5792C39.5977 63.7082 37.0279 62.5757 31.2423 64.3459C28.0279 65.476 18.3899 62.7564 18.0655 66.3392C12.9235 66.1702 5.12564 66.6353 -0.000455979 66.9256C-8.87361 71.7117 -9.89004 65.3846 -15.5448 64.4394C-19.2081 64.4379 -15.9953 65.0804 -20.8148 64.4372C-18.5659 64.9284 -24.0335 70.4703 -25.8282 64.9254C-32.2568 66.997 -26.9193 63.0392 -30.7781 66.1302C-31.7804 66.2775 -32.7172 66.5487 -33.5266 66.9256C-34.336 67.3025 -34.999 67.7764 -35.4713 68.3157C-34.9575 68.7685 -38.3624 67.0699 -41.3855 69.8973C-48.7769 70.573 -48.3271 70.5732 -47.0427 71.7052C-48.1339 70.083 -56.3659 76.8683 -57.9714 75.4722C-62.9191 74.4141 -67.2923 77.8066 -68.5789 79.2392C-74.042 79.6141 -72.4395 84.3291 -78.9939 83.2704C-79.0887 84.2753 -79.0895 85.2826 -78.9966 86.2876C-79.096 87.3554 -79.097 88.4255 -78.9994 89.4934C-79.0521 150.139 -62.9427 101.38 -62.9427 101.38C-62.398 101.18 -61.9488 100.903 -61.6374 100.573C-61.326 100.243 -61.1624 99.8724 -61.1621 99.4953C-61.1618 99.1183 -61.3247 98.7474 -61.6355 98.4174C-61.9464 98.0874 -62.3951 97.8092 -62.9394 97.6088C-61.4603 96.5534 -62.9384 96.4774 -62.9373 95.2328C-62.822 95.0284 -62.6478 94.8371 -62.4225 94.6673C-62.4225 94.6673 -62.4227 94.6673 -62.9367 94.4785C-58.7572 92.1419 -55.865 92.03 -53.4236 92.9739C-47.3167 91.2792 -46.5464 92.3356 -43.9749 91.4692C-43.0099 90.3382 -37.869 90.906 -34.3335 89.9646C-33.1771 90.4554 -31.5698 89.9658 -28.6771 89.2127C-25.7844 88.4596 -20.8347 87.2548 -23.0851 88.4608C-18.7138 87.2557 -8.03307 65.9039 -0.000455979 66.9256C-0.000455979 66.9256 -0.000455979 105 -0.000432084 112.662C4.82 112.287 7.59035 112.168 18.0656 112.662C29.6308 116.137 33.4961 110.885 42.8134 112.662C46.9048 113.442 43.9765 112.206 50.4029 112.662C54.258 113.795 53.5545 139.619 53.4226 112.661C67.1693 143.619 55.2652 111.903 64.9047 112.662C67.2822 113.153 67.5147 111.791 74.9047 112.661C72.9756 113.981 92.6873 115.869 91.4047 112.662C98.4742 112.665 97.4573 119.712 104.854 112.662C108.535 110.789 111.681 114.863 116.103 113.662C116.619 111.513 120.352 109.513 122.405 113.662C124.976 112.532 126.385 114.999 127.351 112.661C130.765 111.74 127.168 112.43 130.905 112.662C135.532 112.664 143.582 116.095 143.905 114.662C143.265 111.192 149.407 111.982 153.905 112.662C160.009 113.796 157.907 115.104 162.405 116.162C165.748 114.165 173.191 114.585 176.405 114.662C180.904 114.098 182.905 115.169 187.405 113.662C186.121 112.266 192.44 118.482 193.405 117.162C199.187 119.314 193.741 122.667 201.905 121.162C200.301 117.843 212.46 117.377 214.905 114.662C216.641 113.531 224.905 115.386 224.905 112.662C226.535 113.348 228.91 114.542 230.905 114.662C232.901 114.782 238.072 119.14 239.905 118.662C243.313 117.344 254.642 110.966 252.905 112.662C259.782 112.665 252.497 115.619 260.405 111.662C269.855 109.592 256.455 122.543 265.905 118.662C282.486 119.159 267.979 115.299 278.905 114.662C277.815 111.531 287.031 115.321 286.906 111.662C290.119 112.116 289.596 115.932 293.906 112.162C292.621 111.596 295.317 111.272 305.406 113.162C316.332 111.847 320.56 115.057 319.406 111.662C326.667 112.985 320.493 112.046 326.406 112.162C332.318 112.278 339.117 121.423 340.406 117.162C342.437 117.821 350.586 113.708 352.906 113.662C355.225 113.617 354.954 114.399 356.906 113.662C357.906 122.162 360.048 114.923 363.906 112.662C366.796 114.549 362.546 120.25 370.906 115.162C377.331 117.239 380.3 113.66 386.406 113.662C388.141 113.286 398.406 115.162 398.406 112.162C399.257 112.668 405.737 113.475 406.906 113.662C406.068 116.868 410.372 115.406 413.906 116.162C416.026 116.653 418.368 116.303 417.406 113.662C423.191 112.156 422.705 115.622 425.406 113.662C429.638 113.169 437.28 114.034 440.906 112.662C444.307 110.978 447.963 116.311 452.406 116.162C456.393 113.222 461.319 116.547 464.406 114.662C468.264 111.835 465.601 112.168 474.406 112.662C488.091 117.005 487.316 111.286 488.406 113.662C484.872 113.17 490.5 114.972 493.906 115.162C495.358 114.588 496.18 113.833 497.906 113.662C498.227 114.039 502.5 103.5 503 104.5C518 115.5 493.6 122.05 501.906 111.662L503 104.5C508.24 114.98 502.086 111.643 505.106 112.662C509.796 114.474 509.606 113.661 511.212 113.662C514.425 114.229 517.276 115.097 518.688 117.662C523.378 118.909 528.407 113.391 523.906 115.162C522.169 117.99 528.249 113.586 529.406 113.662C529.082 116.415 539.535 112.908 539.406 113.662C544.994 118.19 543.536 112.095 547.906 112.662C549.15 113.584 552.137 114.61 553.906 115.162C555.675 115.715 563.408 112.572 565.406 112.662C568.747 114.361 575.424 112.898 579.406 115.162C579.405 117.161 588.957 114.219 589.406 115.162C598.275 115.166 594.196 114.226 599.017 113.662C597.091 111.851 608.93 111.707 614.906 112.162C616.319 113.219 625.403 116.311 625.406 112.162C632.795 114.881 632.228 113.415 636.406 112.662C644.117 114.476 659.144 109.523 657.406 112.162C668.01 112.544 663.332 115.621 665.906 111.662C663.464 111.359 674.1 112.795 673.906 113.662C680.333 113.665 679.906 111.162 679.406 113.662C683.188 114.112 688.685 110.915 691.906 112.162C700.132 113.108 698.583 118.753 703.406 115.662C706.174 110.836 705.978 115.055 712.406 113.662C718.38 117.436 718.637 109.663 719.406 111.662C720.369 112.869 724.682 109.519 732.906 112.162C733.868 114.312 736.633 116.339 741.582 115.662C746.082 114.344 743.732 109.077 747.906 112.662C746.619 115.302 776.74 118.36 775.906 116.662C777.516 113.193 781.766 113.528 786.906 114.662C791.367 114.179 792.946 115.175 797.406 115.662C800.496 110.006 806.407 112.219 806.406 113.162C816.048 111.771 808.584 118.376 813.406 115.662C818.546 117.55 830.356 115.659 834.406 113.662C835.5 112.267 840.251 115.971 845.906 116.162C848.667 119.444 853.035 114.339 857.406 113.662C858.692 113.285 863.93 111.964 865.406 113.662C870.675 115.475 883.766 108.843 884.406 112.162C889.997 112.994 884.994 112.61 895.406 112.162C897.977 111.786 901.785 112.614 903.906 112.162C907.569 112.428 905.729 116.396 909.906 116.662C915.691 116.476 918.299 118.425 919.906 118.162C926.335 116.354 929.836 113.972 932.406 114.162C939.604 114.542 940.208 111.718 942.906 112.662C948.692 110.779 956.086 112.332 956.406 113.162C964.116 115.805 960.893 111.65 965.906 111.162C972.974 113.239 970.193 117.161 973.406 117.162C975.333 119.162 976.088 111.856 985.406 112.162C989.906 112.662 988.731 110.511 992.906 112.662C994.963 112.663 1000.09 112.219 1000.41 113.162C1006.19 117.313 1001.79 112.528 1008.41 113.662C1009.5 114.341 1022.16 109.785 1024.41 112.162C1030.19 112.73 1033.37 112.292 1036.91 111.162C1043.33 113.126 1045.09 109.963 1049.91 111.662C1053.45 113.126 1055.08 111.943 1059.41 112.162C1065.83 111.674 1070.09 113.414 1074.91 112.662C1077.28 112.097 1080.93 112.405 1086.91 113.162C1092.05 112.221 1092.91 111.644 1092.91 112.662C1091.62 109.946 1096.41 111.765 1100.41 112.662C1102.16 113.055 1105.04 114.603 1106.91 114.662C1111.92 113.721 1116.33 116.113 1118.91 113.662C1122.5 113.548 1125.37 113.794 1128.91 114.162C1132.43 114.526 1135.93 113.148 1139.41 112.662C1141.98 112.173 1142.59 113.414 1147.41 112.662C1149.66 111.532 1156.32 113.745 1159.41 112.162C1161.98 111.597 1162.37 112.161 1165.91 112.162C1169.12 112.918 1169.94 112.463 1170.91 112.162C1173.28 113.483 1177.21 111.462 1184.41 113.162C1189.23 112.334 1194.16 114.34 1196.41 113.662C1202.83 113.967 1199.89 109.878 1207.41 113.162C1211.9 116.106 1217.09 110.886 1221.91 112.02C1222.36 112.208 1234.28 111.078 1234.41 112.662C1241.8 112.665 1240.98 113.644 1247.41 113.156C1247.41 110.441 1249.05 112.393 1257.41 112.02C1253.03 115.111 1268.83 116.74 1266.91 113.156C1267.74 112.478 1270.76 112.774 1271.41 112.02C1275.54 112.481 1279.7 112.051 1283.91 112.02C1288.33 113.081 1293.94 111.906 1296.19 112.02C1298.31 113.341 1302.41 109.662 1308.08 113.156C1310.52 108.82 1314.5 113.913 1319.97 114.293C1321.12 113.162 1328.51 114.862 1331.73 115.127C1338.15 115.696 1338.6 115.13 1343.42 115.434C1347.43 114.653 1351.61 114.235 1355.83 114.194C1359.82 109.67 1364.31 116.65 1367.52 113.558C1369.13 110.165 1379.9 116.811 1379.91 112.662C1383.89 111.419 1389.57 112.323 1385.39 110.737C1384.11 110.246 1387.46 113.237 1389.91 113.162C1390.36 112.408 1395.78 111.717 1400.41 112.662C1402.15 113.368 1404.76 111.322 1406.88 111.289C1408.99 111.256 1410.73 113.422 1412.41 112.662C1415.75 113.418 1414.3 113.98 1420.41 112.662C1423.75 112.97 1424.2 113.789 1427.41 113.162C1427.41 113.539 1427.51 118.471 1430.41 116.662C1430.85 125.073 1440.5 116.662 1440 108C1440 100.402 1440 100.402 1440 84.731C1440 84 1456.87 103.299 1462.01 103.49C1462.01 102.095 1471.65 102.099 1472.81 100.402C1472.86 100.552 1472.86 100.705 1472.81 100.855C1472.81 100.477 1474.41 99.2712 1483.41 97.0875C1487.78 97.0894 1486.63 90.7905 1494.34 93.6978C1495.31 93.6982 1502.25 88.3455 1505.59 90.4967C1503.67 89.289 1510.61 87.6702 1517.36 87.7861C1521.98 88.2407 1524.24 84.4701 1529.7 85.717C1532.91 84.2097 1543.71 86.8543 1543.07 84.478C1543.07 85.3454 1549.49 86.9322 1557.53 84.484C1568.58 82.2258 1567.61 86.9398 1573.27 85.7352C1582.27 87.2476 1584.52 85.4382 1590.43 88.5711C1591.27 82.9141 1595.57 92.9859 1596.21 87.6306C1599.94 86.6893 1599.29 92.5349 1604.89 86.1256C1605.54 83.863 1611.96 84.4314 1613.57 84.5075C1616.08 83.7113 1618.95 83.3836 1621.8 83.5681C1621.79 83.8698 1622.44 83.9455 1623.21 83.8704C1626.16 83.6558 1628.86 82.7783 1630.73 81.4221C1623.85 81.6078 1632.98 79.1601 1630.73 82.1764C1628.16 83.3067 1624.3 87.7178 1630.73 84.3261C1631.88 84.3266 1629.95 86.9659 1629.31 88.0971C1625.58 89.4155 1628.67 89.6808 1630.72 92.3217C1629.44 91.1897 1628.66 94.1312 1629.95 96.7718C1634.25 94.3975 1635.86 92.3239 1640.04 92.0616C1645.27 90.9876 1649.97 89.1765 1653.73 86.7873C1659.2 84.9792 1663.18 85.4712 1666.27 82.0781C1671.22 79.4401 1673.15 79.1392 1675.4 77.8201C1676.59 76.5441 1676.98 75.0618 1676.5 73.6342Z" fill="#A2A729"/>
</svg>
