<svg width="86" height="27" viewBox="0 0 86 27" fill="none" xmlns="http://www.w3.org/2000/svg">
<g clip-path="url(#clip0_341_223)">
<path d="M82.552 26.418L4.2831 26.418C2.56118 26.418 1.15234 24.9735 1.15234 23.2081L1.15234 3.94883C1.15234 2.1834 2.56118 0.738958 4.2831 0.738958L82.552 0.738958C84.2739 0.738958 85.6827 2.1834 85.6827 3.94883V23.2081C85.6827 24.9735 84.2739 26.418 82.552 26.418Z" fill="black"/>
<path d="M82.552 0.738958L4.2831 0.738958C2.56118 0.738958 1.15234 2.1834 1.15234 3.94883L1.15234 23.2081C1.15234 24.9735 2.56118 26.418 4.2831 26.418L82.552 26.418C84.2739 26.418 85.6827 24.9735 85.6827 23.2081V3.94883C85.6827 2.1834 84.2739 0.738958 82.552 0.738958ZM82.552 1.25254C84.0021 1.25254 85.1818 2.46227 85.1818 3.94883V23.2081C85.1818 24.6949 84.0021 25.9046 82.552 25.9046L4.2831 25.9046C2.83318 25.9046 1.65326 24.6949 1.65326 23.2081L1.65326 3.94883C1.65326 2.46227 2.83318 1.25254 4.2831 1.25254L82.552 1.25254Z" fill="#A6A6A6"/>
<path d="M68.1103 19.9984H69.2787V11.973H68.1103V19.9984ZM78.634 14.8639L77.2947 18.3433H77.2546L75.8646 14.8639H74.606L76.6905 19.7271L75.502 22.4321H76.7211L79.9333 14.8639H78.634ZM72.0081 19.0869C71.6249 19.0869 71.0914 18.8908 71.0914 18.4053C71.0914 17.7858 71.7564 17.5484 72.3299 17.5484C72.844 17.5484 73.0851 17.6619 73.3975 17.817C73.3067 18.5603 72.6825 19.0869 72.0081 19.0869ZM72.149 14.6883C71.303 14.6883 70.4271 15.0705 70.0645 15.9171L71.1014 16.361C71.3231 15.9171 71.7357 15.7724 72.169 15.7724C72.7733 15.7724 73.3875 16.1443 73.3975 16.8051V16.8876C73.1859 16.7637 72.7332 16.5779 72.179 16.5779C71.0614 16.5779 69.923 17.2076 69.923 18.3847C69.923 19.4585 70.8397 20.1504 71.8666 20.1504C72.6524 20.1504 73.0851 19.789 73.3574 19.3657H73.3975V19.9851H74.5252V16.9081C74.5252 15.4835 73.4883 14.6883 72.149 14.6883ZM64.9282 15.8409L63.2664 15.8409V13.0899H64.9282C65.8017 13.0899 66.2976 13.8314 66.2976 14.4654C66.2976 15.0873 65.8017 15.8409 64.9282 15.8409ZM64.8981 11.973H62.0986V19.9984H63.2664V16.9578L64.8981 16.9578C66.193 16.9578 67.466 15.9966 67.466 14.4654C67.466 12.9342 66.193 11.973 64.8981 11.973ZM49.632 19.0884C48.8248 19.0884 48.149 18.3955 48.149 17.4438C48.149 16.4821 48.8248 15.7787 49.632 15.7787C50.4289 15.7787 51.0543 16.4821 51.0543 17.4438C51.0543 18.3955 50.4289 19.0884 49.632 19.0884ZM50.9736 15.3133H50.9332C50.671 14.9927 50.1664 14.7031 49.531 14.7031C48.1994 14.7031 46.9789 15.9028 46.9789 17.4438C46.9789 18.9745 48.1994 20.1639 49.531 20.1639C50.1664 20.1639 50.671 19.8743 50.9332 19.5435H50.9736V19.9365C50.9736 20.9812 50.4289 21.5397 49.5513 21.5397C48.8351 21.5397 48.3912 21.012 48.2094 20.5674L47.1907 21.0018C47.4833 21.7257 48.2601 22.6152 49.5513 22.6152C50.9231 22.6152 52.0832 21.7877 52.0832 19.771V14.8686H50.9736V15.3133ZM52.8901 19.9984H54.0603V11.9727H52.8901V19.9984ZM55.7853 17.3508C55.755 16.2958 56.5822 15.7581 57.1773 15.7581C57.6417 15.7581 58.0349 15.9958 58.1658 16.3374L55.7853 17.3508ZM59.4168 16.4407C59.1952 15.8303 58.5189 14.7031 57.1369 14.7031C55.765 14.7031 54.6253 15.8098 54.6253 17.4335C54.6253 18.9643 55.755 20.1639 57.2681 20.1639C58.4889 20.1639 59.1952 19.3986 59.4876 18.9539L58.5797 18.3333C58.2772 18.7884 57.8633 19.0884 57.2681 19.0884C56.673 19.0884 56.2494 18.809 55.9769 18.261L59.5377 16.7509L59.4168 16.4407ZM31.047 15.5409V16.6992H33.7505C33.6697 17.3508 33.4579 17.8265 33.1351 18.1575C32.7418 18.561 32.1264 19.0056 31.047 19.0056C29.3826 19.0056 28.0813 17.6301 28.0813 15.9236C28.0813 14.2171 29.3826 12.8414 31.047 12.8414C31.9449 12.8414 32.6004 13.2035 33.0847 13.6689L33.8816 12.8519C33.2058 12.1899 32.3079 11.6831 31.047 11.6831C28.7672 11.6831 26.8506 13.5862 26.8506 15.9236C26.8506 18.261 28.7672 20.1639 31.047 20.1639C32.2778 20.1639 33.2058 19.7504 33.932 18.9745C34.6785 18.2092 34.9106 17.1336 34.9106 16.2649C34.9106 15.9958 34.8905 15.7478 34.8499 15.5409H31.047ZM37.9841 19.0884C37.1769 19.0884 36.4809 18.4057 36.4809 17.4335C36.4809 16.451 37.1769 15.7787 37.9841 15.7787C38.791 15.7787 39.4871 16.451 39.4871 17.4335C39.4871 18.4057 38.791 19.0884 37.9841 19.0884ZM37.9841 14.7031C36.5112 14.7031 35.3107 15.8511 35.3107 17.4335C35.3107 19.0056 36.5112 20.1639 37.9841 20.1639C39.4568 20.1639 40.6572 19.0056 40.6572 17.4335C40.6572 15.8511 39.4568 14.7031 37.9841 14.7031ZM43.8156 19.0884C43.0087 19.0884 42.3126 18.4057 42.3126 17.4335C42.3126 16.451 43.0087 15.7787 43.8156 15.7787C44.6225 15.7787 45.3186 16.451 45.3186 17.4335C45.3186 18.4057 44.6225 19.0884 43.8156 19.0884ZM43.8156 14.7031C42.3427 14.7031 41.1425 15.8511 41.1425 17.4335C41.1425 19.0056 42.3427 20.1639 43.8156 20.1639C45.2883 20.1639 46.4887 19.0056 46.4887 17.4335C46.4887 15.8511 45.2883 14.7031 43.8156 14.7031Z" fill="white"/>
<mask id="mask0_341_223" style="mask-type:alpha" maskUnits="userSpaceOnUse" x="7" y="5" width="9" height="17">
<path d="M7.73328 21.5322L7.68676 21.4866C7.50455 21.2889 7.39697 20.982 7.39697 20.5845V20.6781L7.39697 6.48015C7.39697 6.47887 7.39697 6.47791 7.39697 6.47688C7.39697 6.4781 7.39697 6.47913 7.39697 6.48041V6.5742C7.39697 6.14382 7.52239 5.81962 7.73253 5.62523L15.4904 13.579L7.73328 21.5322ZM7.39697 6.47611C7.39697 6.44073 7.39791 6.40639 7.39967 6.37256C7.39791 6.40613 7.39697 6.44073 7.39697 6.47611Z" fill="white"/>
</mask>
<g mask="url(#mask0_341_223)">
<path d="M7.73328 21.5322L7.68676 21.4866C7.50455 21.2889 7.39697 20.982 7.39697 20.5845V20.6781L7.39697 6.48015C7.39697 6.47887 7.39697 6.47791 7.39697 6.47688C7.39697 6.4781 7.39697 6.47913 7.39697 6.48041V6.5742C7.39697 6.14382 7.52239 5.81962 7.73253 5.62523L15.4904 13.579L7.73328 21.5322ZM7.39697 6.47611C7.39697 6.44073 7.39791 6.40639 7.39967 6.37256C7.39791 6.40613 7.39697 6.44073 7.39697 6.47611Z" fill="url(#paint0_linear_341_223)"/>
</g>
<mask id="mask1_341_223" style="mask-type:alpha" maskUnits="userSpaceOnUse" x="15" y="10" width="7" height="7">
<path d="M18.0758 16.3252L18.1348 16.2908L21.1985 14.5061C21.4906 14.3358 21.6852 14.1294 21.7824 13.911C21.6855 14.1294 21.4908 14.3361 21.1985 14.5064L18.1348 16.2911L18.0758 16.3252ZM18.0766 16.2311L15.4902 13.579L18.0763 10.9273L21.1985 12.7459C21.595 12.9769 21.8176 13.2746 21.8547 13.5788C21.8547 13.579 21.8547 13.5795 21.8547 13.58C21.8176 13.8834 21.595 14.1814 21.1985 14.4123L18.0766 16.2311Z" fill="white"/>
</mask>
<g mask="url(#mask1_341_223)">
<path d="M18.0758 16.3252L18.1348 16.2908L21.1985 14.5061C21.4906 14.3358 21.6852 14.1294 21.7824 13.911C21.6855 14.1294 21.4908 14.3361 21.1985 14.5064L18.1348 16.2911L18.0758 16.3252ZM18.0766 16.2311L15.4902 13.579L18.0763 10.9273L21.1985 12.7459C21.595 12.9769 21.8176 13.2746 21.8547 13.5788C21.8547 13.579 21.8547 13.5795 21.8547 13.58C21.8176 13.8834 21.595 14.1814 21.1985 14.4123L18.0766 16.2311Z" fill="url(#paint1_linear_341_223)"/>
</g>
<mask id="mask2_341_223" style="mask-type:alpha" maskUnits="userSpaceOnUse" x="7" y="13" width="12" height="9">
<path d="M8.28602 21.835C8.06931 21.835 7.88022 21.7627 7.73276 21.6263L7.73301 21.6261C7.88047 21.7625 8.06981 21.835 8.28653 21.835C8.30531 21.835 8.32441 21.8344 8.34376 21.8335C8.32416 21.8344 8.30481 21.835 8.28602 21.835ZM8.28628 21.7409C8.06956 21.7412 7.88047 21.6687 7.73301 21.5323V21.5321L15.4901 13.5788L18.0765 16.231L8.98775 21.5255C8.73629 21.6717 8.49804 21.7409 8.28628 21.7409ZM7.73082 21.6246C7.7171 21.6118 7.70364 21.5983 7.69043 21.5842L7.73082 21.6246Z" fill="white"/>
</mask>
<g mask="url(#mask2_341_223)">
<path d="M8.28602 21.835C8.06931 21.835 7.88022 21.7627 7.73276 21.6263L7.73301 21.6261C7.88047 21.7625 8.06981 21.835 8.28653 21.835C8.30531 21.835 8.32441 21.8344 8.34376 21.8335C8.32416 21.8344 8.30481 21.835 8.28602 21.835ZM8.28628 21.7409C8.06956 21.7412 7.88047 21.6687 7.73301 21.5323V21.5321L15.4901 13.5788L18.0765 16.231L8.98775 21.5255C8.73629 21.6717 8.49804 21.7409 8.28628 21.7409ZM7.73082 21.6246C7.7171 21.6118 7.70364 21.5983 7.69043 21.5842L7.73082 21.6246Z" fill="url(#paint2_linear_341_223)"/>
</g>
<mask id="mask3_341_223" style="mask-type:alpha" maskUnits="userSpaceOnUse" x="7" y="5" width="12" height="9">
<path d="M15.4903 13.5791L7.73242 5.62535C7.87988 5.48918 8.06873 5.41696 8.28519 5.41696C8.49752 5.41696 8.73595 5.48642 8.98792 5.63286L18.0764 10.9274L15.4903 13.5791ZM18.1349 10.8675L8.98792 5.53913C8.73595 5.39263 8.49752 5.32317 8.28519 5.32317C8.28419 5.32317 8.2835 5.32317 8.2825 5.32317C8.28375 5.32317 8.28469 5.32317 8.28619 5.32317C8.49802 5.32317 8.7362 5.39237 8.98792 5.53887L18.1349 10.8675Z" fill="white"/>
</mask>
<g mask="url(#mask3_341_223)">
<path d="M15.4903 13.5791L7.73242 5.62535C7.87988 5.48918 8.06873 5.41696 8.28519 5.41696C8.49752 5.41696 8.73595 5.48642 8.98792 5.63286L18.0764 10.9274L15.4903 13.5791ZM18.1349 10.8675L8.98792 5.53913C8.73595 5.39263 8.49752 5.32317 8.28519 5.32317C8.28419 5.32317 8.2835 5.32317 8.2825 5.32317C8.28375 5.32317 8.28469 5.32317 8.28619 5.32317C8.49802 5.32317 8.7362 5.39237 8.98792 5.53887L18.1349 10.8675Z" fill="url(#paint3_linear_341_223)"/>
</g>
<path d="M8.34375 21.834C8.54061 21.8224 8.75858 21.753 8.98775 21.6198L18.0757 16.3255L8.98775 21.6198C8.75876 21.7532 8.54061 21.8224 8.34375 21.834Z" fill="black"/>
<mask id="mask4_341_223" style="mask-type:alpha" maskUnits="userSpaceOnUse" x="18" y="16" width="1" height="1">
<path d="M18.0757 16.3252L18.1347 16.2909L18.0757 16.3252Z" fill="white"/>
</mask>
<g mask="url(#mask4_341_223)">
<path d="M18.0757 16.3252L18.1347 16.2909L18.0757 16.3252Z" fill="url(#paint4_linear_341_223)"/>
</g>
<mask id="mask5_341_223" style="mask-type:alpha" maskUnits="userSpaceOnUse" x="7" y="16" width="12" height="6">
<path d="M8.28656 21.835C8.06985 21.835 7.88051 21.7625 7.73305 21.6261L7.7328 21.6263C7.7323 21.6258 7.73154 21.6251 7.73085 21.6246L7.69047 21.5842C7.68922 21.5829 7.68803 21.5814 7.68652 21.58L7.73305 21.5323C7.88051 21.6687 8.0696 21.7412 8.28631 21.7409C8.49808 21.7409 8.73633 21.6717 8.98779 21.5255L18.0765 16.231L18.1347 16.2907L18.0757 16.325L8.98779 21.6193C8.75862 21.7525 8.54066 21.8219 8.34379 21.8335C8.32445 21.8344 8.30535 21.835 8.28656 21.835Z" fill="white"/>
</mask>
<g mask="url(#mask5_341_223)">
<path d="M8.28656 21.835C8.06985 21.835 7.88051 21.7625 7.73305 21.6261L7.7328 21.6263C7.7323 21.6258 7.73154 21.6251 7.73085 21.6246L7.69047 21.5842C7.68922 21.5829 7.68803 21.5814 7.68652 21.58L7.73305 21.5323C7.88051 21.6687 8.0696 21.7412 8.28631 21.7409C8.49808 21.7409 8.73633 21.6717 8.98779 21.5255L18.0765 16.231L18.1347 16.2907L18.0757 16.325L8.98779 21.6193C8.75862 21.7525 8.54066 21.8219 8.34379 21.8335C8.32445 21.8344 8.30535 21.835 8.28656 21.835Z" fill="url(#paint5_linear_341_223)"/>
</g>
<path d="M7.68675 21.5801C7.50455 21.3824 7.39697 21.0755 7.39697 20.678V20.6778C7.39697 21.0755 7.50455 21.3822 7.68675 21.5798V21.5801Z" fill="black"/>
<mask id="mask6_341_223" style="mask-type:alpha" maskUnits="userSpaceOnUse" x="7" y="20" width="1" height="2">
<path d="M7.68675 21.5801C7.50455 21.3824 7.39697 21.0757 7.39697 20.678V20.5845C7.39697 20.9819 7.50455 21.2889 7.68675 21.4865L7.73328 21.5322L7.68675 21.5801Z" fill="white"/>
</mask>
<g mask="url(#mask6_341_223)">
<path d="M7.68675 21.5801C7.50455 21.3824 7.39697 21.0757 7.39697 20.678V20.5845C7.39697 20.9819 7.50455 21.2889 7.68675 21.4865L7.73328 21.5322L7.68675 21.5801Z" fill="url(#paint6_linear_341_223)"/>
</g>
<mask id="mask7_341_223" style="mask-type:alpha" maskUnits="userSpaceOnUse" x="7" y="21" width="1" height="1">
<path d="M7.68652 21.5801L7.73305 21.5322V21.5324L7.68652 21.5801Z" fill="white"/>
</mask>
<g mask="url(#mask7_341_223)">
<path d="M7.68652 21.5801L7.73305 21.5322V21.5324L7.68652 21.5801Z" fill="url(#paint7_linear_341_223)"/>
</g>
<path d="M21.7822 13.9111C21.8304 13.8028 21.8546 13.6914 21.8546 13.5801C21.8546 13.5799 21.8546 13.5796 21.8546 13.5796C21.8546 13.6912 21.8304 13.8025 21.7822 13.9111Z" fill="black"/>
<mask id="mask8_341_223" style="mask-type:alpha" maskUnits="userSpaceOnUse" x="18" y="13" width="4" height="4">
<path d="M18.1349 16.291L18.0767 16.2313L21.1986 14.4125C21.5951 14.1816 21.8177 13.8836 21.8549 13.5801C21.8549 13.6915 21.8306 13.8029 21.7825 13.9112C21.6854 14.1296 21.4907 14.336 21.1986 14.5063L18.1349 16.291Z" fill="white"/>
</mask>
<g mask="url(#mask8_341_223)">
<path d="M18.1349 16.291L18.0767 16.2313L21.1986 14.4125C21.5951 14.1816 21.8177 13.8836 21.8549 13.5801C21.8549 13.6915 21.8306 13.8029 21.7825 13.9112C21.6854 14.1296 21.4907 14.336 21.1986 14.5063L18.1349 16.291Z" fill="url(#paint8_linear_341_223)"/>
</g>
<path d="M21.8545 13.5791V13.5788C21.8542 13.243 21.6353 12.9073 21.1982 12.6525L18.1345 10.8677H18.1343L18.1345 10.8675L21.1982 12.6522C21.6358 12.907 21.855 13.2433 21.8545 13.5791Z" fill="#404040"/>
<mask id="mask9_341_223" style="mask-type:alpha" maskUnits="userSpaceOnUse" x="18" y="10" width="4" height="4">
<path d="M21.8546 13.5791C21.8174 13.2749 21.5948 12.9772 21.1983 12.7463L18.0762 10.9277L18.1344 10.868H18.1347L21.1983 12.6527C21.6355 12.9075 21.8544 13.2433 21.8546 13.5791Z" fill="white"/>
</mask>
<g mask="url(#mask9_341_223)">
<path d="M21.8546 13.5791C21.8174 13.2749 21.5948 12.9772 21.1983 12.7463L18.0762 10.9277L18.1344 10.868H18.1347L21.1983 12.6527C21.6355 12.9075 21.8544 13.2433 21.8546 13.5791Z" fill="url(#paint9_linear_341_223)"/>
</g>
<path d="M7.39941 6.36621C7.43567 5.70671 7.78544 5.32576 8.28022 5.32351C8.0657 5.3248 7.87886 5.39702 7.73259 5.53216V5.5319L7.73084 5.5337C7.71543 5.54795 7.70078 5.56304 7.68632 5.57857C7.52195 5.75685 7.41826 6.02391 7.39941 6.36621Z" fill="#404040"/>
<mask id="mask10_341_223" style="mask-type:alpha" maskUnits="userSpaceOnUse" x="7" y="5" width="1" height="2">
<path d="M7.39697 6.57422V6.48043C7.39697 6.47914 7.39697 6.47812 7.39697 6.4769C7.39697 6.47664 7.39697 6.47638 7.39697 6.47612C7.39697 6.44075 7.39791 6.40615 7.39967 6.37257C7.39967 6.37206 7.39967 6.37155 7.39967 6.37103C7.39967 6.37058 7.39967 6.37007 7.39985 6.36956C7.39985 6.36853 7.39985 6.36757 7.39985 6.36654C7.39985 6.36628 7.39985 6.36603 7.39985 6.36577C7.4187 6.02347 7.52239 5.75641 7.68676 5.57813L7.73253 5.62525C7.52239 5.81964 7.39697 6.14384 7.39697 6.57422Z" fill="white"/>
</mask>
<g mask="url(#mask10_341_223)">
<path d="M7.39697 6.57422V6.48043C7.39697 6.47914 7.39697 6.47812 7.39697 6.4769C7.39697 6.47664 7.39697 6.47638 7.39697 6.47612C7.39697 6.44075 7.39791 6.40615 7.39967 6.37257C7.39967 6.37206 7.39967 6.37155 7.39967 6.37103C7.39967 6.37058 7.39967 6.37007 7.39985 6.36956C7.39985 6.36853 7.39985 6.36757 7.39985 6.36654C7.39985 6.36628 7.39985 6.36603 7.39985 6.36577C7.4187 6.02347 7.52239 5.75641 7.68676 5.57813L7.73253 5.62525C7.52239 5.81964 7.39697 6.14384 7.39697 6.57422Z" fill="url(#paint10_linear_341_223)"/>
</g>
<mask id="mask11_341_223" style="mask-type:alpha" maskUnits="userSpaceOnUse" x="7" y="5" width="12" height="6">
<path d="M18.0762 10.9277L8.98779 5.63317C8.73583 5.48674 8.49739 5.41728 8.28506 5.41728C8.0686 5.41728 7.87975 5.4895 7.7323 5.62566L7.68652 5.57854C7.70099 5.563 7.71564 5.54792 7.73104 5.53367C7.73154 5.53315 7.7323 5.53264 7.7328 5.53212C7.87906 5.39699 8.06591 5.32477 8.28043 5.32348C8.28093 5.32348 8.28162 5.32348 8.28237 5.32348C8.28337 5.32348 8.28406 5.32348 8.28506 5.32348C8.49739 5.32348 8.73583 5.39294 8.98779 5.53944L18.1347 10.8678L18.1345 10.868L18.0762 10.9277Z" fill="white"/>
</mask>
<g mask="url(#mask11_341_223)">
<path d="M18.0762 10.9277L8.98779 5.63317C8.73583 5.48674 8.49739 5.41728 8.28506 5.41728C8.0686 5.41728 7.87975 5.4895 7.7323 5.62566L7.68652 5.57854C7.70099 5.563 7.71564 5.54792 7.73104 5.53367C7.73154 5.53315 7.7323 5.53264 7.7328 5.53212C7.87906 5.39699 8.06591 5.32477 8.28043 5.32348C8.28093 5.32348 8.28162 5.32348 8.28237 5.32348C8.28337 5.32348 8.28406 5.32348 8.28506 5.32348C8.49739 5.32348 8.73583 5.39294 8.98779 5.53944L18.1347 10.8678L18.1345 10.868L18.0762 10.9277Z" fill="url(#paint11_linear_341_223)"/>
</g>
<path d="M27.4811 8.61176H28.1476C28.5813 8.61176 28.925 8.48439 29.1786 8.22959C29.4322 7.97505 29.5589 7.61792 29.5589 7.15903C29.5589 6.70362 29.4322 6.34777 29.1786 6.09098C28.925 5.83496 28.5813 5.70631 28.1476 5.70631H27.4811V8.61176ZM26.9985 9.08496V5.23311H28.1476C28.7249 5.23311 29.1867 5.41139 29.5333 5.76852C29.8793 6.12513 30.0525 6.58851 30.0525 7.15903C30.0525 7.7293 29.8793 8.19294 29.5333 8.54955C29.1867 8.90668 28.7249 9.08496 28.1476 9.08496H26.9985Z" fill="white"/>
<path d="M27.4812 8.61104V8.67524H28.1478C28.5926 8.67575 28.9559 8.54305 29.2225 8.27477C29.4905 8.00617 29.6222 7.62875 29.6217 7.15831C29.6222 6.6914 29.4903 6.31495 29.2227 6.04461C28.9561 5.77479 28.5929 5.64088 28.1478 5.64139H27.4812H27.4186V8.67524H27.4812V8.61104H27.5438V5.76979H28.1478C28.5697 5.77056 28.894 5.89369 29.1347 6.13616V6.1359C29.3746 6.37915 29.4959 6.71445 29.4964 7.15831C29.4959 7.60571 29.3744 7.94223 29.1349 8.18297C28.894 8.42422 28.5699 8.54607 28.1478 8.54684H27.4812V8.61104H27.5438H27.4812ZM26.9987 9.08424H27.0613V5.29659H28.1478C28.7127 5.2971 29.1547 5.46934 29.4891 5.81318C29.8227 6.15773 29.9893 6.60082 29.99 7.15831C29.9893 7.71555 29.8227 8.15889 29.4891 8.50344C29.1547 8.84728 28.7127 9.01953 28.1478 9.02004H26.9987V9.08424H27.0613H26.9987V9.14844H28.1478C28.7372 9.14895 29.2185 8.96464 29.5776 8.59422C29.9362 8.22534 30.1158 7.74135 30.1153 7.15831C30.1158 6.57476 29.9362 6.09129 29.5779 5.72266C29.2185 5.35199 28.7372 5.16768 28.1478 5.16819H26.936V9.14844H26.9987V9.08424Z" fill="white"/>
<path d="M30.73 9.08496V5.23311H31.2126V9.08496H30.73Z" fill="white"/>
<path d="M30.7301 9.08424H30.7927V5.29659H31.1501V9.02004H30.7301V9.08424H30.7927H30.7301V9.14844H31.2127H31.2753V5.16819H30.7301H30.6675V9.14844H30.7301V9.08424Z" fill="white"/>
<path d="M33.1323 9.1709C32.8596 9.1709 32.593 9.07961 32.3325 8.89678C32.0715 8.71375 31.9008 8.45747 31.8208 8.12718L32.2616 7.94434C32.3141 8.156 32.4213 8.33453 32.5836 8.47949C32.7471 8.62471 32.9293 8.69744 33.1323 8.69744C33.3422 8.69744 33.5219 8.64101 33.6704 8.52815C33.8191 8.4153 33.893 8.26186 33.893 8.06799C33.893 7.85305 33.8191 7.6871 33.6704 7.57046C33.5219 7.45387 33.2864 7.34551 32.9647 7.24497C32.6321 7.13763 32.3801 6.99846 32.209 6.82795C32.0378 6.65763 31.9517 6.44 31.9517 6.17442C31.9517 5.89805 32.0586 5.65808 32.2721 5.45367C32.4853 5.24933 32.7637 5.14674 33.1059 5.14674C33.4246 5.14674 33.6834 5.22879 33.8827 5.39178C34.0818 5.55504 34.2116 5.73331 34.2709 5.92713L33.8306 6.11497C33.7988 5.99364 33.721 5.88026 33.597 5.7762C33.473 5.67265 33.3125 5.62046 33.1164 5.62046C32.931 5.62046 32.7727 5.6731 32.6419 5.77922C32.5106 5.88501 32.445 6.01668 32.445 6.17442C32.445 6.31783 32.5054 6.43897 32.626 6.53752C32.7471 6.63606 32.9244 6.7251 33.1584 6.80387C33.3439 6.86505 33.4987 6.92399 33.6234 6.98138C33.7474 7.03858 33.8734 7.11504 34.0006 7.21011C34.1282 7.30487 34.2244 7.42351 34.2892 7.56519C34.354 7.70688 34.3863 7.8709 34.3863 8.0572C34.3863 8.24376 34.3491 8.41054 34.2741 8.55749C34.1987 8.70495 34.0984 8.82134 33.9742 8.9073C33.8502 8.99333 33.7168 9.05881 33.573 9.10368C33.4294 9.14856 33.2827 9.1709 33.1323 9.1709Z" fill="white"/>
<path d="M33.1327 9.17018V9.10598C32.8739 9.10572 32.6206 9.01995 32.3681 8.84315C32.1196 8.66815 31.9592 8.42786 31.8819 8.11117L31.8212 8.12645L31.8447 8.18616L32.2854 8.00332L32.262 7.94362L32.2013 7.95967C32.2566 8.18314 32.3715 8.37445 32.543 8.52718L32.5432 8.52743C32.7157 8.68119 32.915 8.76143 33.1327 8.76092C33.3533 8.76117 33.548 8.7007 33.708 8.57911C33.8714 8.45649 33.9572 8.27764 33.956 8.06726C33.9572 7.83757 33.8733 7.64671 33.7089 7.51882C33.5497 7.39447 33.3091 7.28489 32.9835 7.18281H32.984C32.6572 7.07772 32.4141 6.94207 32.2529 6.78107C32.0939 6.62231 32.0152 6.42496 32.0147 6.17369C32.0152 5.91491 32.1122 5.69523 32.3151 5.49988C32.5161 5.3078 32.7758 5.21073 33.1063 5.21022C33.415 5.21047 33.6576 5.28899 33.844 5.4412C34.0365 5.59893 34.1568 5.76694 34.2116 5.94547L34.2713 5.9264L34.2473 5.86702L33.807 6.05506L33.831 6.11425L33.8914 6.09768C33.8555 5.96004 33.7684 5.83563 33.637 5.72579C33.5 5.61119 33.3235 5.55528 33.1168 5.55554C32.9202 5.55528 32.7458 5.61248 32.6034 5.7281L32.6036 5.72784C32.4598 5.84243 32.3818 5.99715 32.3828 6.17369C32.3818 6.33618 32.4549 6.47991 32.5872 6.587L32.5875 6.58719C32.7176 6.69279 32.9011 6.78383 33.1396 6.86407L33.1398 6.86433C33.3237 6.92474 33.4763 6.98316 33.5979 7.03933H33.5982C33.7175 7.09429 33.8398 7.1685 33.9641 7.26126H33.9643C34.0839 7.35031 34.1725 7.45963 34.2329 7.59182C34.2933 7.72349 34.3241 7.87769 34.3241 8.05648C34.3241 8.23456 34.2889 8.38999 34.2189 8.52718C34.1477 8.66584 34.0551 8.77344 33.9396 8.85343C33.8205 8.93592 33.693 8.99864 33.5553 9.04153C33.4174 9.08467 33.277 9.10598 33.1327 9.10598V9.17018V9.23438C33.2892 9.23438 33.4424 9.21107 33.5918 9.1644C33.7415 9.11773 33.8807 9.04929 34.0098 8.95999V8.95974C34.1429 8.86774 34.2505 8.74262 34.3297 8.58662C34.4102 8.42966 34.4495 8.25183 34.4494 8.05648C34.4495 7.86267 34.4155 7.68888 34.3464 7.53712C34.2772 7.38594 34.1734 7.25805 34.0377 7.1572L34.0379 7.15746C33.9075 7.0602 33.7782 6.98143 33.6493 6.92224H33.6495C33.5216 6.86305 33.3648 6.80366 33.1782 6.74197H33.1785C32.9488 6.66493 32.7773 6.57795 32.6653 6.48666H32.6655C32.5569 6.3964 32.509 6.29811 32.508 6.17369C32.509 6.03477 32.5618 5.92621 32.6809 5.82889L32.6812 5.82863C32.8006 5.73234 32.9429 5.68419 33.1168 5.68393C33.3027 5.68419 33.4465 5.73234 33.5578 5.82536L33.5585 5.82587L33.5578 5.8251C33.6747 5.92345 33.7429 6.02546 33.7706 6.13107L33.789 6.20181L34.2953 5.98559L34.348 5.96306L34.331 5.90715C34.2671 5.69825 34.1282 5.50963 33.922 5.3406C33.7097 5.16682 33.435 5.08156 33.1063 5.08182C32.7521 5.08131 32.4554 5.18942 32.2296 5.40608C32.0056 5.61948 31.8887 5.88005 31.8895 6.17369C31.8887 6.45334 31.9821 6.69177 32.1658 6.87332C32.3471 7.05339 32.6078 7.1961 32.9463 7.30543H32.9468C33.2646 7.40474 33.4947 7.51208 33.6327 7.62064C33.7655 7.72625 33.8295 7.8669 33.8308 8.06726C33.8295 8.24432 33.7674 8.37272 33.6336 8.47575C33.4964 8.57988 33.3318 8.63227 33.1327 8.63252C32.9443 8.63201 32.7793 8.56678 32.6252 8.43036H32.6254C32.4718 8.29298 32.3725 8.12774 32.3226 7.92783L32.305 7.85663L31.7977 8.06701L31.7471 8.08781L31.7603 8.14199C31.8432 8.48532 32.024 8.7579 32.2974 8.94902C32.5662 9.13782 32.8463 9.23438 33.1327 9.23438V9.17018Z" fill="white"/>
<path d="M35.5622 7.05118H36.3703C36.5733 7.05118 36.7362 6.98147 36.8582 6.84184C36.9805 6.70163 37.042 6.54788 37.042 6.37916C37.042 6.21065 36.9805 6.05612 36.8582 5.91649C36.7362 5.77628 36.5733 5.70631 36.3703 5.70631H35.5622V7.05118ZM35.5622 9.08496H35.0796V5.23311H36.36C36.678 5.23311 36.9539 5.34141 37.1862 5.55833C37.4191 5.77526 37.5353 6.04912 37.5353 6.37916C37.5353 6.70888 37.4191 6.98223 37.1862 7.19916C36.9539 7.41634 36.678 7.5249 36.36 7.5249H35.5622V9.08496Z" fill="white"/>
<path d="M35.5618 7.05046V7.11466H36.3699C36.5866 7.11543 36.771 7.03769 36.9046 6.884C37.0354 6.73474 37.1044 6.5632 37.1042 6.37844C37.1044 6.19362 37.0354 6.02182 36.9046 5.87289C36.771 5.71862 36.5866 5.64062 36.3699 5.64139H35.5618H35.4992V7.11466H35.5618V7.05046H35.6244V5.76979H36.3699C36.5593 5.77081 36.7004 5.83251 36.8114 5.95859C36.9251 6.0893 36.9785 6.22597 36.979 6.37844C36.9785 6.53091 36.9251 6.66707 36.8114 6.79823C36.7004 6.92412 36.5595 6.98556 36.3699 6.98626H35.5618V7.05046H35.6244H35.5618ZM35.5618 9.08424V9.02004H35.1418V5.29659H36.3596C36.6637 5.2971 36.9215 5.39866 37.1436 5.60531C37.3642 5.81164 37.4716 6.06368 37.4723 6.37844C37.4716 6.69263 37.3642 6.94441 37.1436 7.15106C36.9215 7.3579 36.6637 7.45946 36.3596 7.45998H35.5618H35.4992V9.08424H35.5618V9.02004V9.08424H35.6244V7.58837H36.3596C36.6916 7.58889 36.9853 7.47327 37.2279 7.24581C37.4732 7.01862 37.5982 6.7237 37.5975 6.37844C37.5982 6.03287 37.4732 5.73769 37.2279 5.51024C36.9853 5.28304 36.6916 5.16768 36.3596 5.16819H35.0166V9.14844H35.5618H35.6244V9.08424H35.5618Z" fill="white"/>
<path d="M38.8173 8.26462C39.0957 8.55325 39.4356 8.69744 39.838 8.69744C40.2404 8.69744 40.5808 8.55325 40.8587 8.26462C41.1368 7.97599 41.2762 7.60705 41.2762 7.15895C41.2762 6.71085 41.1368 6.34191 40.8587 6.05328C40.5808 5.76464 40.2404 5.62046 39.838 5.62046C39.4356 5.62046 39.0957 5.76464 38.8173 6.05328C38.54 6.34191 38.4003 6.71085 38.4003 7.15895C38.4003 7.60705 38.54 7.97599 38.8173 8.26462ZM41.2158 8.58709C40.8465 8.97651 40.3871 9.1709 39.838 9.1709C39.2889 9.1709 38.8298 8.97651 38.461 8.58709C38.0916 8.19811 37.9077 7.72196 37.9077 7.15895C37.9077 6.59594 38.0916 6.11972 38.461 5.73081C38.8298 5.34132 39.2889 5.14674 39.838 5.14674C40.3842 5.14674 40.842 5.34235 41.2133 5.73331C41.5839 6.12428 41.7691 6.59947 41.7691 7.15895C41.7691 7.72196 41.5844 8.19811 41.2158 8.58709Z" fill="white"/>
<path d="M38.8174 8.2639L38.7729 8.30903C39.0616 8.60922 39.4211 8.76169 39.8381 8.76092C40.2551 8.76169 40.6154 8.60922 40.9033 8.30903C41.1934 8.00859 41.3395 7.61987 41.339 7.15823C41.3395 6.69658 41.1934 6.30787 40.9033 6.00742C40.6154 5.70723 40.2551 5.55476 39.8381 5.55553C39.4211 5.55476 39.0616 5.70723 38.7729 6.00742C38.4833 6.30787 38.3373 6.69658 38.3378 7.15823C38.3373 7.61987 38.4833 8.00859 38.7729 8.30903L38.8174 8.2639L38.8622 8.21877C38.5966 7.94163 38.4638 7.59304 38.4633 7.15823C38.4638 6.72342 38.5966 6.37482 38.8622 6.09768H38.862C39.13 5.82061 39.4505 5.6847 39.8381 5.68393C40.2258 5.6847 40.5467 5.82061 40.8141 6.09768L40.8151 6.09871L40.8141 6.09768C41.0804 6.37482 41.2132 6.72342 41.2137 7.15823C41.2132 7.59304 41.0804 7.94163 40.8141 8.21877C40.5467 8.49585 40.2258 8.63175 39.8381 8.63252C39.4505 8.63175 39.13 8.49585 38.862 8.21877L38.8174 8.2639ZM41.2159 8.58636L41.1709 8.54175C40.8121 8.91891 40.3728 9.10521 39.8381 9.10598C39.3035 9.10521 38.8642 8.91891 38.5061 8.54175L38.5041 8.53976L38.5059 8.54175C38.1478 8.1633 37.9709 7.70692 37.9704 7.15823C37.9709 6.60953 38.1478 6.15315 38.5059 5.7747H38.5061C38.8642 5.39754 39.3035 5.21099 39.8381 5.21021C40.3696 5.21099 40.8077 5.39831 41.1685 5.77746C41.528 6.15764 41.7061 6.61332 41.7066 7.15823C41.7061 7.70692 41.5285 8.1633 41.1709 8.54175L41.2159 8.58636L41.2607 8.63098C41.6405 8.23129 41.8323 7.73549 41.8318 7.15823C41.8323 6.58424 41.6398 6.08946 41.2582 5.68797C40.8767 5.28494 40.3987 5.08111 39.8381 5.08182C39.2746 5.08111 38.7955 5.28398 38.4161 5.68547V5.68521C38.0358 6.08516 37.8445 6.58096 37.8452 7.15823C37.8445 7.73549 38.0358 8.23129 38.4161 8.63124V8.63098C38.7955 9.03247 39.2746 9.23489 39.8381 9.23437C40.4017 9.23489 40.8808 9.03247 41.2607 8.63098L41.2159 8.58636Z" fill="white"/>
<path d="M42.4463 9.08496V5.23311H43.0341L44.8597 8.22959H44.8805L44.8597 7.48728V5.23311H45.343V9.08496H44.8389L42.9286 5.94326H42.9078L42.9286 6.68584V9.08496H42.4463Z" fill="white"/>
<path d="M42.4464 9.08424H42.509V5.29659H42.9994L44.8253 8.29307H44.8806H44.9451L44.9224 7.48559V5.29659H45.2805V9.02004H44.874L42.9637 5.87834H42.9079H42.8436L42.8661 6.68588V9.02004H42.4464V9.08424H42.509H42.4464V9.14844H42.9287H42.9913V6.68409L42.9706 5.94081L42.9079 5.94254V6.00674H42.9287V5.94254L42.8757 5.97669L44.8042 9.14844H45.3431H45.4057V5.16819H44.8598H44.7972V7.48733L44.8182 8.2306L44.8806 8.22887V8.16467H44.8598V8.22887L44.9131 8.19478L43.0687 5.16819H42.4464H42.3838V9.14844H42.4464V9.08424Z" fill="white"/>
<path d="M46.2036 9.08496V5.23311H46.6859V9.08496H46.2036Z" fill="white"/>
<path d="M46.2032 9.08424H46.2659V5.29659H46.6229V9.02004H46.2032V9.08424H46.2659H46.2032V9.14844H46.6856H46.7482V5.16819H46.2032H46.1406V9.14844H46.2032V9.08424Z" fill="white"/>
<path d="M48.029 8.61176H48.9997C49.1851 8.61176 49.3355 8.54532 49.4509 8.41217C49.5667 8.27999 49.6241 8.13452 49.6241 7.97653C49.6241 7.81879 49.565 7.67461 49.4456 7.54371C49.327 7.41281 49.1712 7.34713 48.9785 7.34713H48.029V8.61176ZM48.029 6.88446H48.9051C49.0873 6.88446 49.2336 6.82302 49.3436 6.69887C49.4535 6.57522 49.5084 6.44009 49.5084 6.29288C49.5084 6.14593 49.4554 6.01099 49.3485 5.88966C49.2421 5.76749 49.1012 5.70631 48.9265 5.70631H48.029V6.88446ZM47.5464 9.08496V5.23311H48.9051C49.1993 5.23311 49.4535 5.33294 49.6689 5.5315C49.8839 5.7309 49.9915 5.98088 49.9915 6.2821C49.9915 6.46487 49.945 6.62639 49.8524 6.76634C49.7599 6.90622 49.6364 7.01209 49.4823 7.0838V7.10511C49.6675 7.16956 49.8198 7.28088 49.9389 7.43861C50.0578 7.5966 50.1177 7.7797 50.1177 7.98757C50.1177 8.30303 50.0045 8.56483 49.779 8.77277C49.5532 8.9809 49.2866 9.08496 48.9785 9.08496H47.5464Z" fill="white"/>
<path d="M48.0286 8.61104V8.67524H48.9993C49.1992 8.67601 49.3711 8.60077 49.4975 8.45427H49.4973C49.6216 8.3131 49.6869 8.1501 49.6864 7.9758C49.6869 7.80132 49.6189 7.63902 49.491 7.49914H49.4912C49.3611 7.35488 49.1843 7.28144 48.9781 7.28221H47.966V8.67524H48.0286V8.61104H48.0912V7.41061H48.9781C49.1571 7.41131 49.2921 7.46954 49.3992 7.58664H49.3995C49.5101 7.709 49.5607 7.83515 49.5612 7.9758C49.5607 8.11749 49.511 8.24543 49.4041 8.36876H49.4039C49.2992 8.48816 49.1703 8.54581 48.9993 8.54684H48.0286V8.61104H48.0912H48.0286ZM48.0286 6.88374V6.94794H48.9047C49.1004 6.94864 49.2679 6.87944 49.3895 6.74128V6.74154C49.5079 6.6091 49.5712 6.45612 49.5707 6.29216C49.5712 6.12916 49.5103 5.97669 49.3946 5.84579V5.84605C49.2772 5.71008 49.1148 5.64062 48.9262 5.64138H47.966V6.94794H48.0286V6.88374H48.0912V5.76978H48.9262C49.0869 5.77081 49.206 5.82345 49.3014 5.93156L49.3019 5.93201L49.3014 5.93182C49.3997 6.04416 49.4453 6.16152 49.4454 6.29216C49.4453 6.42229 49.3985 6.54015 49.2967 6.65475V6.655C49.1982 6.7651 49.0734 6.81877 48.9047 6.81954H48.0286V6.88374H48.0912H48.0286ZM47.546 9.08424H47.6086V5.29659H48.9047C49.185 5.2971 49.4215 5.38986 49.6265 5.57848C49.8295 5.76754 49.9278 5.99602 49.9285 6.28137C49.9285 6.45317 49.8857 6.60037 49.8002 6.72947H49.7999C49.7138 6.85992 49.6005 6.95718 49.456 7.02465L49.4193 7.04173V7.10439V7.15029L49.4618 7.16505C49.636 7.2263 49.7769 7.32908 49.8891 7.47731V7.47705C49.9992 7.62451 50.0542 7.79149 50.0547 7.98684C50.0537 8.28678 49.9498 8.52675 49.7365 8.72441C49.5213 8.92227 49.2726 9.01953 48.9781 9.02004H47.546V9.08424H47.6086H47.546V9.14844H48.9781C49.2999 9.14895 49.5844 9.03808 49.8204 8.81968C50.0582 8.60173 50.1807 8.3181 50.18 7.98684C50.1802 7.76645 50.1152 7.56731 49.9882 7.3988V7.39854C49.862 7.23156 49.6984 7.11164 49.502 7.04372L49.4819 7.10439H49.5445V7.08307H49.4819L49.5079 7.14149C49.6715 7.06555 49.8053 6.9514 49.9038 6.80144L49.9036 6.8017C50.0038 6.65102 50.054 6.47519 50.0537 6.28137C50.0547 5.96462 49.9378 5.69281 49.7104 5.48314L49.7089 5.48192L49.7104 5.48314C49.4848 5.27424 49.2126 5.16767 48.9047 5.16819H47.4834V9.14844H47.546V9.08424Z" fill="white"/>
<path d="M50.7681 9.08496V5.23311H51.2504V8.61176H52.8769V9.08496H50.7681Z" fill="white"/>
<path d="M50.7682 9.08424H50.8308V5.29659H51.1879V8.67524H52.8144V9.02004H50.7682V9.08424H50.8308H50.7682V9.14844H52.9396V8.61104V8.54684H51.3131V5.16819H50.7682H50.7056V9.14844H50.7682V9.08424Z" fill="white"/>
<path d="M55.6796 5.70631H53.9689V6.9276H55.5116V7.39047H53.9689V8.61176H55.6796V9.08496H53.4863V5.23311H55.6796V5.70631Z" fill="white"/>
<path d="M55.6792 5.70559V5.64139H53.9059V6.99108H55.4486V7.32535L53.9059 7.32555V8.67524H55.6166V9.02004H53.5486V5.29659H55.6166V5.70559H55.6792V5.64139V5.70559H55.7418V5.23239V5.16819H53.4233V9.14844H55.7418V8.61104V8.54684H54.0311V7.45394H55.5738V6.92688V6.86268H54.0311V5.76979H55.7418V5.70559H55.6792Z" fill="white"/>
<path d="M58.5965 9.1709C58.3241 9.1709 58.0574 9.07961 57.7969 8.89678C57.5358 8.71375 57.3651 8.45747 57.2852 8.12718L57.7262 7.94434C57.7788 8.156 57.8852 8.33453 58.048 8.47949C58.2114 8.62471 58.3936 8.69744 58.5965 8.69744C58.8063 8.69744 58.986 8.64101 59.135 8.52815C59.2834 8.4153 59.3573 8.26186 59.3573 8.06799C59.3573 7.85305 59.2834 7.6871 59.135 7.57046C58.986 7.45387 58.7505 7.34551 58.4293 7.24497C58.0962 7.13763 57.8445 6.99846 57.6736 6.82795C57.5021 6.65763 57.4158 6.44 57.4158 6.17442C57.4158 5.89805 57.5227 5.65808 57.7362 5.45367C57.9497 5.24933 58.2277 5.14674 58.5702 5.14674C58.8889 5.14674 59.1475 5.22879 59.3466 5.39178C59.5464 5.55504 59.676 5.73331 59.7355 5.92713L59.2947 6.11497C59.2634 5.99364 59.1857 5.88026 59.0611 5.7762C58.9371 5.67265 58.7768 5.62046 58.5808 5.62046C58.3955 5.62046 58.2371 5.6731 58.1062 5.77922C57.9747 5.88501 57.9096 6.01668 57.9096 6.17442C57.9096 6.31783 57.9697 6.43897 58.0906 6.53752C58.2114 6.63606 58.3886 6.7251 58.6228 6.80387C58.8081 6.86505 58.9628 6.92399 59.0874 6.98138C59.212 7.03858 59.3379 7.11504 59.465 7.21011C59.5927 7.30487 59.6885 7.42351 59.7536 7.56519C59.8181 7.70688 59.8507 7.8709 59.8507 8.0572C59.8507 8.24376 59.8137 8.41054 59.738 8.55749C59.6628 8.70495 59.5627 8.82134 59.4387 8.9073C59.3147 8.99333 59.1813 9.05881 59.0373 9.10368C58.8939 9.14856 58.7468 9.1709 58.5965 9.1709Z" fill="white"/>
<path d="M58.5969 9.17018V9.10598C58.3383 9.10572 58.0847 9.01995 57.8324 8.84315C57.5838 8.66815 57.4235 8.42786 57.3462 8.11117L57.2856 8.12645L57.3088 8.18616L57.7497 8.00332L57.7266 7.94362L57.6658 7.95967C57.7209 8.18314 57.8355 8.37445 58.0077 8.52718L58.009 8.52846L58.0077 8.52743C58.1799 8.68119 58.379 8.76143 58.5969 8.76092C58.8173 8.76117 59.012 8.7007 59.1723 8.57911C59.3358 8.45649 59.4216 8.27764 59.4203 8.06726C59.4216 7.83757 59.3376 7.64671 59.173 7.51882C59.0139 7.39447 58.7735 7.28489 58.4479 7.18281H58.4485C58.1217 7.07772 57.8787 6.94207 57.7172 6.78107C57.5581 6.62231 57.4795 6.42496 57.4788 6.17369C57.4795 5.91491 57.5763 5.69523 57.7792 5.49988C57.9808 5.3078 58.24 5.21073 58.5706 5.21022C58.8793 5.21047 59.1216 5.28899 59.3082 5.4412C59.5004 5.59893 59.6213 5.76694 59.6758 5.94547L59.7359 5.9264L59.7115 5.86702L59.2713 6.05506L59.2951 6.11425L59.3558 6.09768C59.3201 5.96004 59.2325 5.83563 59.1016 5.72579C58.9645 5.61119 58.7879 5.55528 58.5813 5.55554C58.3846 5.55528 58.2099 5.61248 58.0678 5.7281V5.72784C57.9244 5.84243 57.8462 5.99715 57.8474 6.17369C57.8462 6.33618 57.9194 6.47991 58.0515 6.587V6.58719C58.1818 6.69279 58.3652 6.78383 58.6038 6.86407L58.6044 6.86433C58.7879 6.92474 58.9407 6.98316 59.0621 7.03933C59.1817 7.09429 59.3045 7.1685 59.4284 7.26126C59.548 7.35031 59.6369 7.45963 59.6971 7.59182C59.7578 7.72349 59.7885 7.87769 59.7885 8.05648C59.7885 8.23456 59.7534 8.38999 59.6833 8.52718C59.6119 8.66584 59.5192 8.77344 59.404 8.85343C59.285 8.93592 59.1573 8.99864 59.0196 9.04153C58.8818 9.08467 58.7416 9.10598 58.5969 9.10598V9.17018V9.23438C58.7534 9.23438 58.9069 9.21107 59.0559 9.1644C59.2055 9.11773 59.3452 9.04929 59.4741 8.95999V8.95974C59.6069 8.86774 59.7146 8.74262 59.7941 8.58662C59.8743 8.42966 59.9137 8.25183 59.9137 8.05648C59.9137 7.86267 59.8799 7.68888 59.8104 7.53712C59.7415 7.38594 59.6382 7.25805 59.5023 7.1572L59.5011 7.15649L59.5023 7.15746C59.3721 7.0602 59.2425 6.98143 59.1135 6.92224C58.9857 6.86305 58.8292 6.80366 58.6426 6.74197C58.4128 6.66493 58.2419 6.57795 58.1298 6.48666C58.0215 6.3964 57.9733 6.29811 57.9726 6.17369C57.9733 6.03477 58.0265 5.92621 58.1455 5.82889V5.82863C58.2651 5.73234 58.4072 5.68419 58.5813 5.68393C58.7672 5.68419 58.9106 5.73234 59.0221 5.82536V5.8251C59.1392 5.92345 59.2074 6.02546 59.235 6.13107L59.2531 6.20181L59.7597 5.98559L59.8123 5.96306L59.7954 5.90715C59.7315 5.69825 59.5925 5.50963 59.3865 5.3406C59.1742 5.16682 58.8993 5.08156 58.5706 5.08182C58.2162 5.08131 57.9194 5.18942 57.694 5.40608C57.47 5.61948 57.3531 5.88005 57.3536 6.17369C57.3531 6.45334 57.4467 6.69177 57.6301 6.87332C57.8111 7.05339 58.0722 7.1961 58.4109 7.30543C58.729 7.40474 58.9588 7.51208 59.0972 7.62064C59.2299 7.72625 59.2938 7.8669 59.2951 8.06726C59.2938 8.24432 59.2318 8.37272 59.0978 8.47575C58.9607 8.57988 58.796 8.63227 58.5969 8.63252C58.4091 8.63201 58.2438 8.56678 58.0897 8.43036C57.9363 8.29298 57.8368 8.12774 57.7867 7.92783L57.7691 7.85663L57.2621 8.06701L57.2114 8.08781L57.2246 8.14199C57.3075 8.48532 57.4883 8.7579 57.7616 8.94902C58.0302 9.13782 58.3108 9.23438 58.5969 9.23438V9.17018Z" fill="white"/>
<path d="M61.8502 9.1709C61.4363 9.1709 61.1019 9.03095 60.8446 8.75137C60.5878 8.47172 60.4595 8.10561 60.4595 7.65398V5.23302H60.9416V7.67555C60.9416 7.98023 61.0193 8.22675 61.1752 8.41529C61.3304 8.60339 61.5559 8.69744 61.8502 8.69744C62.1432 8.69744 62.3686 8.60339 62.5239 8.41529C62.6798 8.22675 62.7574 7.98023 62.7574 7.67555V5.23302H63.2402V7.65398C63.2402 8.10939 63.115 8.47628 62.8651 8.75387C62.6147 9.03223 62.2759 9.1709 61.8502 9.1709Z" fill="white"/>
<path d="M61.8503 9.17115V9.10695C61.4502 9.10593 61.1365 8.97406 60.8904 8.70745C60.6456 8.44065 60.5228 8.09385 60.5222 7.65423V5.29747H60.8791V7.6758C60.8791 7.99126 60.9605 8.25505 61.1277 8.45721C61.2955 8.66155 61.5435 8.76266 61.8503 8.76189C62.1558 8.76266 62.4038 8.66155 62.5716 8.45695C62.7388 8.25505 62.8202 7.99126 62.8202 7.6758V5.29747H63.1777V7.65423C63.1777 8.09783 63.0569 8.44591 62.8189 8.71047C62.581 8.97451 62.2635 9.10618 61.8503 9.10695V9.17115V9.23535C62.2892 9.23586 62.6486 9.09013 62.911 8.79752C63.1733 8.50684 63.3036 8.12114 63.3029 7.65423V5.16908H62.7576H62.6949V7.6758C62.6943 7.96969 62.6204 8.19862 62.4758 8.3742C62.3337 8.54574 62.1314 8.63273 61.8503 8.6335C61.5679 8.63273 61.3656 8.54574 61.2235 8.3742C61.0789 8.19862 61.005 7.96969 61.0043 7.6758V5.16908H60.4596H60.397V7.65423C60.3964 8.11793 60.5303 8.5033 60.799 8.79547C61.0676 9.0884 61.4232 9.23586 61.8503 9.23535V9.17115Z" fill="white"/>
<path d="M64.4994 7.06223H65.2758C65.4687 7.06223 65.6333 6.99751 65.7717 6.86841C65.9101 6.73976 65.979 6.57625 65.979 6.37916C65.979 6.21065 65.9182 6.05612 65.7955 5.91649C65.6734 5.77628 65.5106 5.70631 65.3077 5.70631H64.4994V7.06223ZM64.0166 9.08496V5.23311H65.2971C65.6152 5.23311 65.8913 5.34141 66.1236 5.55833C66.3565 5.77526 66.4724 6.04912 66.4724 6.37916C66.4724 6.64796 66.3872 6.88568 66.215 7.09182C66.0441 7.29822 65.8306 7.42783 65.5751 7.48176L65.5645 7.49781L66.6195 9.06365V9.08496H66.0478L65.0347 7.5249H64.4994V9.08496H64.0166Z" fill="white"/>
<path d="M64.4995 7.0615V7.1257H65.2759C65.4825 7.12622 65.6654 7.05476 65.8144 6.91533H65.8138C65.9647 6.77589 66.0423 6.59081 66.0417 6.37844C66.0423 6.19362 65.9735 6.02182 65.8426 5.87289C65.7086 5.71862 65.5245 5.64062 65.3079 5.64139H64.4995H64.4369V7.1257H64.4995V7.0615H64.5621V5.76979H65.3079C65.497 5.77081 65.6378 5.83251 65.7493 5.95859C65.8626 6.0893 65.9165 6.22597 65.9165 6.37844C65.9158 6.56025 65.8557 6.70193 65.7299 6.82025C65.6021 6.93889 65.455 6.99679 65.2759 6.99731H64.4995V7.0615H64.5621H64.4995ZM64.0167 9.08424H64.0793V5.29659H65.2972C65.6015 5.2971 65.8595 5.39866 66.0812 5.60531C66.3022 5.81164 66.4093 6.06368 66.4099 6.37844C66.4099 6.63344 66.3304 6.85363 66.1676 7.0495V7.04976C66.0041 7.24581 65.805 7.3667 65.5627 7.41838L65.537 7.42364L65.5126 7.46152L65.4888 7.49785L66.557 9.08296V9.08424H66.6196V9.02004H66.0812L65.0687 7.45998H64.4995H64.4369V9.02004H64.0167V9.08424H64.0793H64.0167V9.14844H64.4995H64.5621V7.58837H65.0017L66.0142 9.14844H66.6196H66.6823V9.06293V9.04283L65.6159 7.46075L65.5646 7.49708L65.6165 7.53271L65.6272 7.51666L65.5752 7.48103L65.5877 7.54401C65.8557 7.48784 66.0837 7.34917 66.2627 7.13276V7.13296C66.4437 6.91629 66.5357 6.6613 66.5351 6.37844C66.5364 6.03287 66.4111 5.73769 66.1657 5.51024C65.9227 5.28304 65.6291 5.16768 65.2972 5.16819H63.9541V9.14844H64.0167V9.08424Z" fill="white"/>
</g>
<defs>
<linearGradient id="paint0_linear_341_223" x1="12.3577" y1="6.33038" x2="5.50694" y2="13.0123" gradientUnits="userSpaceOnUse">
<stop stop-color="#00A0FF"/>
<stop offset="0.00657445" stop-color="#00A1FF"/>
<stop offset="0.2601" stop-color="#00BEFF"/>
<stop offset="0.5122" stop-color="#00D2FF"/>
<stop offset="0.7604" stop-color="#00DFFF"/>
<stop offset="1" stop-color="#00E3FF"/>
</linearGradient>
<linearGradient id="paint1_linear_341_223" x1="22.3378" y1="13.5794" x2="7.18684" y2="13.5794" gradientUnits="userSpaceOnUse">
<stop stop-color="#FFE000"/>
<stop offset="0.4087" stop-color="#FFBD00"/>
<stop offset="0.7754" stop-color="#FFA500"/>
<stop offset="1" stop-color="#FF9C00"/>
</linearGradient>
<linearGradient id="paint2_linear_341_223" x1="16.6977" y1="16.1112" x2="5.00485" y2="27.5158" gradientUnits="userSpaceOnUse">
<stop stop-color="#FF3A44"/>
<stop offset="1" stop-color="#C31162"/>
</linearGradient>
<linearGradient id="paint3_linear_341_223" x1="5.72166" y1="4.29851" x2="10.9367" y2="9.38504" gradientUnits="userSpaceOnUse">
<stop stop-color="#32A071"/>
<stop offset="0.0685" stop-color="#2DA771"/>
<stop offset="0.4762" stop-color="#15CF74"/>
<stop offset="0.8009" stop-color="#06E775"/>
<stop offset="1" stop-color="#00F076"/>
</linearGradient>
<linearGradient id="paint4_linear_341_223" x1="22.092" y1="14.8483" x2="7.82043" y2="14.8483" gradientUnits="userSpaceOnUse">
<stop stop-color="#CCB300"/>
<stop offset="0.4087" stop-color="#CC9700"/>
<stop offset="0.7754" stop-color="#CC8400"/>
<stop offset="1" stop-color="#CC7D00"/>
</linearGradient>
<linearGradient id="paint5_linear_341_223" x1="16.6978" y1="17.9436" x2="7.39632" y2="27.0158" gradientUnits="userSpaceOnUse">
<stop stop-color="#CC2E36"/>
<stop offset="1" stop-color="#9C0E4E"/>
</linearGradient>
<linearGradient id="paint6_linear_341_223" x1="8.43325" y1="6.33032" x2="2.40198" y2="12.2129" gradientUnits="userSpaceOnUse">
<stop stop-color="#008DE0"/>
<stop offset="0.00657445" stop-color="#008DE0"/>
<stop offset="0.2601" stop-color="#00A7E0"/>
<stop offset="0.5122" stop-color="#00B8E0"/>
<stop offset="0.7604" stop-color="#00C4E0"/>
<stop offset="1" stop-color="#00C7E0"/>
</linearGradient>
<linearGradient id="paint7_linear_341_223" x1="14.3879" y1="16.7042" x2="3.49271" y2="27.2876" gradientUnits="userSpaceOnUse">
<stop stop-color="#E0333C"/>
<stop offset="1" stop-color="#AB0F56"/>
</linearGradient>
<linearGradient id="paint8_linear_341_223" x1="22.3379" y1="13.5796" x2="7.18696" y2="13.5796" gradientUnits="userSpaceOnUse">
<stop stop-color="#E0C500"/>
<stop offset="0.4087" stop-color="#E0A600"/>
<stop offset="0.7754" stop-color="#E09100"/>
<stop offset="1" stop-color="#E08900"/>
</linearGradient>
<linearGradient id="paint9_linear_341_223" x1="22.3377" y1="13.5797" x2="7.18673" y2="13.5797" gradientUnits="userSpaceOnUse">
<stop stop-color="#FFE840"/>
<stop offset="0.4087" stop-color="#FFCE40"/>
<stop offset="0.7754" stop-color="#FFBC40"/>
<stop offset="1" stop-color="#FFB540"/>
</linearGradient>
<linearGradient id="paint10_linear_341_223" x1="8.42683" y1="6.34131" x2="2.62417" y2="11.7557" gradientUnits="userSpaceOnUse">
<stop stop-color="#40B8FF"/>
<stop offset="0.00657445" stop-color="#40B9FF"/>
<stop offset="0.2601" stop-color="#40CEFF"/>
<stop offset="0.5122" stop-color="#40DDFF"/>
<stop offset="0.7604" stop-color="#40E7FF"/>
<stop offset="1" stop-color="#40EAFF"/>
</linearGradient>
<linearGradient id="paint11_linear_341_223" x1="5.72154" y1="6.13497" x2="9.8751" y2="10.1861" gradientUnits="userSpaceOnUse">
<stop stop-color="#65B895"/>
<stop offset="0.0685" stop-color="#62BD95"/>
<stop offset="0.4762" stop-color="#50DB97"/>
<stop offset="0.8009" stop-color="#44ED98"/>
<stop offset="1" stop-color="#40F498"/>
</linearGradient>
<clipPath id="clip0_341_223">
<rect width="85" height="26" fill="white" transform="translate(0.995605 0.579102)"/>
</clipPath>
</defs>
</svg>
