<svg width="60" height="48" viewBox="0 0 60 48" fill="none" xmlns="http://www.w3.org/2000/svg">
<path d="M30.5372 19.7189C32.4319 19.7189 33.9679 18.1829 33.9679 16.2881C33.9679 14.3934 32.4319 12.8574 30.5372 12.8574C28.6424 12.8574 27.1064 14.3934 27.1064 16.2881C27.1064 18.1829 28.6424 19.7189 30.5372 19.7189Z" fill="white"/>
<path fill-rule="evenodd" clip-rule="evenodd" d="M32.1088 28.0807L32.1625 28.0421C33.3629 27.2314 34.4693 26.2895 35.4612 25.2338C35.1449 25.1351 34.8723 24.9302 34.6896 24.6538C34.5069 24.3773 34.4251 24.0463 34.4581 23.7166C34.4912 23.3869 34.637 23.0787 34.871 22.8441C35.105 22.6094 35.4127 22.4627 35.7423 22.4287C35.4971 22.1472 35.3632 21.7858 35.3657 21.4125C35.3658 21.187 35.419 20.9647 35.5207 20.7634C35.6225 20.5622 35.7701 20.3877 35.9517 20.254C36.1332 20.1202 36.3437 20.031 36.566 19.9935C36.7884 19.9559 37.0164 19.9711 37.2318 20.0378C37.1266 19.8166 37.0786 19.5725 37.0921 19.3278C37.1056 19.0832 37.1803 18.8459 37.3093 18.6376C37.4382 18.4293 37.6174 18.2567 37.8303 18.1356C38.0433 18.0144 38.2832 17.9486 38.5281 17.9442C38.7263 17.9445 38.9223 17.985 39.1043 18.0632C39.2864 18.1414 39.4507 18.2557 39.5873 18.3992C39.6892 18.0772 39.7783 17.7682 39.8556 17.4581C40.0863 16.4159 40.0399 15.3316 39.7212 14.3129C39.4024 13.2943 38.8223 12.377 38.0387 11.6523C37.255 10.9276 36.2952 10.4209 35.2548 10.1825C34.2144 9.94423 33.1297 9.98266 32.1088 10.294C31.9726 10.3352 31.8386 10.3836 31.7075 10.4389C31.23 10.6438 30.7171 10.7532 30.1976 10.7608C29.7719 10.7624 29.3492 10.6897 28.9485 10.5462C28.5217 10.3867 28.0758 10.2842 27.6221 10.2414C27.4515 10.2264 27.2777 10.2199 27.1028 10.2199C25.4847 10.2202 23.9329 10.863 22.7885 12.007C21.6442 13.1509 21.0009 14.7025 21 16.3206C21 16.811 21.1438 17.6308 21.2533 18.088C21.8918 20.3769 23.2031 22.7893 25.1282 24.9623C26.1908 26.1684 27.4003 27.2366 28.7285 28.1419C29.236 28.464 29.8267 28.6303 30.4277 28.6202C31.0287 28.6101 31.6135 28.424 32.1099 28.085" fill="white"/>
<path d="M30.6847 20.5773C32.8194 20.5773 34.55 18.8468 34.55 16.712C34.55 14.5772 32.8194 12.8467 30.6847 12.8467C28.5499 12.8467 26.8193 14.5772 26.8193 16.712C26.8193 18.8468 28.5499 20.5773 30.6847 20.5773Z" fill="#A2A729"/>
<path fill-rule="evenodd" clip-rule="evenodd" d="M28.7154 5.44576C27.9947 4.72486 27.0969 4.20648 26.1122 3.94275C25.1276 3.67902 24.0908 3.67925 23.1063 3.94341C22.8564 4.87669 22.8433 5.85756 23.0682 6.79717C23.293 7.73679 23.7488 8.60546 24.3941 9.32451C25.0394 10.0435 25.8539 10.5902 26.7638 10.9151C27.6737 11.2399 28.6503 11.3326 29.605 11.1847C29.473 11.0774 29.3432 10.9551 29.2187 10.8306C28.4393 10.0538 27.898 9.07056 27.6584 7.99654C28.1254 9.2858 29.032 10.3691 30.2189 11.056C30.4831 10.0712 30.4832 9.03416 30.2193 8.04929C29.9554 7.06442 29.4367 6.16645 28.7154 5.44576Z" fill="white"/>
<path fill-rule="evenodd" clip-rule="evenodd" d="M35.8323 9.56065C36.5519 8.84266 37.0696 7.94779 37.3333 6.96611C37.597 5.98444 37.5975 4.95061 37.3347 3.96869C36.3532 3.70724 35.3202 3.70838 34.3392 3.97199C33.3583 4.23561 32.4638 4.75244 31.7456 5.47069C31.0273 6.18893 30.5105 7.08336 30.2469 8.0643C29.9833 9.04525 29.9821 10.0783 30.2436 11.0598C31.4267 10.3753 32.3304 9.29531 32.7954 8.01001C32.5571 9.08081 32.0176 10.0612 31.2405 10.8355C31.116 10.96 30.9876 11.0777 30.8553 11.1886C31.7544 11.3282 32.6739 11.2536 33.5388 10.9707C34.4037 10.6878 35.1895 10.2047 35.8323 9.56065Z" fill="white"/>
<path d="M30.2187 11.0542C31.8218 11.0542 33.1214 8.80286 33.1214 6.02565C33.1214 3.24844 31.8218 0.99707 30.2187 0.99707C28.6155 0.99707 27.3159 3.24844 27.3159 6.02565C27.3159 8.80286 28.6155 11.0542 30.2187 11.0542Z" fill="white"/>
<path d="M2.503 44.7411C2.28967 44.7411 2.119 44.6771 1.991 44.5491C1.87367 44.4317 1.815 44.2664 1.815 44.0531V36.5811C1.82567 35.7491 2.023 35.0024 2.407 34.3411C2.80167 33.6691 3.32967 33.1411 3.991 32.7571C4.65233 32.3624 5.399 32.1651 6.231 32.1651C7.08433 32.1651 7.84167 32.3624 8.503 32.7571C9.175 33.1411 9.703 33.6691 10.087 34.3411C10.4817 35.0131 10.679 35.7757 10.679 36.6291C10.679 37.4717 10.4923 38.2291 10.119 38.9011C9.75633 39.5731 9.255 40.1064 8.615 40.5011C7.975 40.8851 7.24967 41.0771 6.439 41.0771C5.74567 41.0771 5.11633 40.9331 4.551 40.6451C3.98567 40.3464 3.527 39.9571 3.175 39.4771V44.0531C3.175 44.2664 3.111 44.4317 2.983 44.5491C2.855 44.6771 2.695 44.7411 2.503 44.7411ZM6.231 39.8611C6.82833 39.8611 7.36167 39.7224 7.831 39.4451C8.311 39.1571 8.68433 38.7677 8.951 38.2771C9.22833 37.7864 9.367 37.2371 9.367 36.6291C9.367 36.0104 9.22833 35.4611 8.951 34.9811C8.68433 34.4904 8.311 34.1011 7.831 33.8131C7.36167 33.5251 6.82833 33.3811 6.231 33.3811C5.655 33.3811 5.127 33.5251 4.647 33.8131C4.17767 34.1011 3.80967 34.4904 3.543 34.9811C3.27633 35.4611 3.143 36.0104 3.143 36.6291C3.143 37.2371 3.27633 37.7864 3.543 38.2771C3.80967 38.7677 4.17767 39.1571 4.647 39.4451C5.11633 39.7224 5.64433 39.8611 6.231 39.8611ZM17.1279 41.0771C16.2532 41.0771 15.4799 40.8904 14.8079 40.5171C14.1359 40.1331 13.6079 39.6051 13.2239 38.9331C12.8399 38.2611 12.6479 37.4931 12.6479 36.6291C12.6479 35.7544 12.8292 34.9864 13.1919 34.3251C13.5545 33.6531 14.0505 33.1251 14.6799 32.7411C15.3199 32.3571 16.0559 32.1651 16.8879 32.1651C17.6985 32.1651 18.4025 32.3517 18.9999 32.7251C19.6079 33.0877 20.0719 33.5944 20.3919 34.2451C20.7225 34.8957 20.8879 35.6371 20.8879 36.4691C20.8879 36.6504 20.8292 36.7997 20.7119 36.9171C20.5945 37.0237 20.4452 37.0771 20.2639 37.0771H13.5759V35.9731H20.3439L19.6559 36.4531C19.6665 35.8664 19.5599 35.3384 19.3359 34.8691C19.1119 34.3997 18.7919 34.0317 18.3759 33.7651C17.9599 33.4984 17.4639 33.3651 16.8879 33.3651C16.2799 33.3651 15.7465 33.5037 15.2879 33.7811C14.8399 34.0584 14.4932 34.4477 14.2479 34.9491C14.0132 35.4397 13.8959 35.9997 13.8959 36.6291C13.8959 37.2584 14.0345 37.8184 14.3119 38.3091C14.5892 38.7997 14.9679 39.1837 15.4479 39.4611C15.9385 39.7384 16.4985 39.8771 17.1279 39.8771C17.4905 39.8771 17.8585 39.8131 18.2319 39.6851C18.6159 39.5571 18.9199 39.3971 19.1439 39.2051C19.2719 39.1091 19.4159 39.0611 19.5759 39.0611C19.7465 39.0504 19.8852 39.0931 19.9919 39.1891C20.1519 39.3277 20.2319 39.4771 20.2319 39.6371C20.2425 39.7971 20.1732 39.9357 20.0239 40.0531C19.6719 40.3517 19.2239 40.5971 18.6799 40.7891C18.1359 40.9811 17.6185 41.0771 17.1279 41.0771ZM23.6593 44.7411C23.4459 44.7411 23.2753 44.6771 23.1473 44.5491C23.0299 44.4317 22.9713 44.2664 22.9713 44.0531V36.5811C22.9819 35.7491 23.1793 35.0024 23.5633 34.3411C23.9579 33.6691 24.4859 33.1411 25.1473 32.7571C25.8086 32.3624 26.5553 32.1651 27.3873 32.1651C28.2406 32.1651 28.9979 32.3624 29.6593 32.7571C30.3313 33.1411 30.8593 33.6691 31.2433 34.3411C31.6379 35.0131 31.8353 35.7757 31.8353 36.6291C31.8353 37.4717 31.6486 38.2291 31.2753 38.9011C30.9126 39.5731 30.4113 40.1064 29.7713 40.5011C29.1313 40.8851 28.4059 41.0771 27.5953 41.0771C26.9019 41.0771 26.2726 40.9331 25.7073 40.6451C25.1419 40.3464 24.6833 39.9571 24.3313 39.4771V44.0531C24.3313 44.2664 24.2673 44.4317 24.1393 44.5491C24.0113 44.6771 23.8513 44.7411 23.6593 44.7411ZM27.3873 39.8611C27.9846 39.8611 28.5179 39.7224 28.9873 39.4451C29.4673 39.1571 29.8406 38.7677 30.1073 38.2771C30.3846 37.7864 30.5233 37.2371 30.5233 36.6291C30.5233 36.0104 30.3846 35.4611 30.1073 34.9811C29.8406 34.4904 29.4673 34.1011 28.9873 33.8131C28.5179 33.5251 27.9846 33.3811 27.3873 33.3811C26.8113 33.3811 26.2833 33.5251 25.8033 33.8131C25.3339 34.1011 24.9659 34.4904 24.6993 34.9811C24.4326 35.4611 24.2993 36.0104 24.2993 36.6291C24.2993 37.2371 24.4326 37.7864 24.6993 38.2771C24.9659 38.7677 25.3339 39.1571 25.8033 39.4451C26.2726 39.7224 26.8006 39.8611 27.3873 39.8611ZM38.2841 41.0771C37.4095 41.0771 36.6361 40.8904 35.9641 40.5171C35.2921 40.1331 34.7641 39.6051 34.3801 38.9331C33.9961 38.2611 33.8041 37.4931 33.8041 36.6291C33.8041 35.7544 33.9855 34.9864 34.3481 34.3251C34.7108 33.6531 35.2068 33.1251 35.8361 32.7411C36.4761 32.3571 37.2121 32.1651 38.0441 32.1651C38.8548 32.1651 39.5588 32.3517 40.1561 32.7251C40.7641 33.0877 41.2281 33.5944 41.5481 34.2451C41.8788 34.8957 42.0441 35.6371 42.0441 36.4691C42.0441 36.6504 41.9855 36.7997 41.8681 36.9171C41.7508 37.0237 41.6015 37.0771 41.4201 37.0771H34.7321V35.9731H41.5001L40.8121 36.4531C40.8228 35.8664 40.7161 35.3384 40.4921 34.8691C40.2681 34.3997 39.9481 34.0317 39.5321 33.7651C39.1161 33.4984 38.6201 33.3651 38.0441 33.3651C37.4361 33.3651 36.9028 33.5037 36.4441 33.7811C35.9961 34.0584 35.6495 34.4477 35.4041 34.9491C35.1695 35.4397 35.0521 35.9997 35.0521 36.6291C35.0521 37.2584 35.1908 37.8184 35.4681 38.3091C35.7455 38.7997 36.1241 39.1837 36.6041 39.4611C37.0948 39.7384 37.6548 39.8771 38.2841 39.8771C38.6468 39.8771 39.0148 39.8131 39.3881 39.6851C39.7721 39.5571 40.0761 39.3971 40.3001 39.2051C40.4281 39.1091 40.5721 39.0611 40.7321 39.0611C40.9028 39.0504 41.0415 39.0931 41.1481 39.1891C41.3081 39.3277 41.3881 39.4771 41.3881 39.6371C41.3988 39.7971 41.3295 39.9357 41.1801 40.0531C40.8281 40.3517 40.3801 40.5971 39.8361 40.7891C39.2921 40.9811 38.7748 41.0771 38.2841 41.0771ZM47.607 41.0771C46.7963 41.0771 46.071 40.8851 45.431 40.5011C44.791 40.1064 44.2843 39.5731 43.911 38.9011C43.5377 38.2291 43.351 37.4717 43.351 36.6291C43.351 35.7757 43.543 35.0131 43.927 34.3411C44.3217 33.6691 44.855 33.1411 45.527 32.7571C46.199 32.3624 46.9563 32.1651 47.799 32.1651C48.631 32.1651 49.3777 32.3624 50.039 32.7571C50.711 33.1411 51.239 33.6691 51.623 34.3411C52.0177 35.0131 52.2203 35.7757 52.231 36.6291L51.687 36.9011C51.687 37.6904 51.5057 38.3997 51.143 39.0291C50.791 39.6584 50.3057 40.1597 49.687 40.5331C49.079 40.8957 48.3857 41.0771 47.607 41.0771ZM47.799 39.8611C48.3963 39.8611 48.9243 39.7224 49.383 39.4451C49.8523 39.1571 50.2203 38.7677 50.487 38.2771C50.7643 37.7864 50.903 37.2371 50.903 36.6291C50.903 36.0104 50.7643 35.4611 50.487 34.9811C50.2203 34.4904 49.8523 34.1011 49.383 33.8131C48.9243 33.5251 48.3963 33.3811 47.799 33.3811C47.2123 33.3811 46.679 33.5251 46.199 33.8131C45.7297 34.1011 45.3563 34.4904 45.079 34.9811C44.8017 35.4611 44.663 36.0104 44.663 36.6291C44.663 37.2371 44.8017 37.7864 45.079 38.2771C45.3563 38.7677 45.7297 39.1571 46.199 39.4451C46.679 39.7224 47.2123 39.8611 47.799 39.8611ZM51.543 40.9971C51.351 40.9971 51.1857 40.9384 51.047 40.8211C50.919 40.6931 50.855 40.5277 50.855 40.3251V37.6851L51.159 36.2931L52.231 36.6291V40.3251C52.231 40.5277 52.167 40.6931 52.039 40.8211C51.911 40.9384 51.7457 40.9971 51.543 40.9971ZM57.9715 40.9971C57.4168 40.9971 56.9208 40.8637 56.4835 40.5971C56.0462 40.3304 55.6995 39.9624 55.4435 39.4931C55.1982 39.0237 55.0755 38.4957 55.0755 37.9091V30.1331C55.0755 29.9411 55.1342 29.7811 55.2515 29.6531C55.3795 29.5251 55.5448 29.4611 55.7475 29.4611C55.9395 29.4611 56.0995 29.5251 56.2275 29.6531C56.3555 29.7811 56.4195 29.9411 56.4195 30.1331V37.9091C56.4195 38.4104 56.5635 38.8264 56.8515 39.1571C57.1502 39.4877 57.5235 39.6531 57.9715 39.6531H58.4515C58.6222 39.6531 58.7662 39.7171 58.8835 39.8451C59.0008 39.9731 59.0595 40.1331 59.0595 40.3251C59.0595 40.5277 58.9848 40.6931 58.8355 40.8211C58.6968 40.9384 58.5155 40.9971 58.2915 40.9971H57.9715ZM54.1315 33.7331C53.9502 33.7331 53.8008 33.6797 53.6835 33.5731C53.5662 33.4557 53.5075 33.3171 53.5075 33.1571C53.5075 32.9864 53.5662 32.8477 53.6835 32.7411C53.8008 32.6237 53.9502 32.5651 54.1315 32.5651H58.0835C58.2648 32.5651 58.4142 32.6237 58.5315 32.7411C58.6488 32.8477 58.7075 32.9864 58.7075 33.1571C58.7075 33.3171 58.6488 33.4557 58.5315 33.5731C58.4142 33.6797 58.2648 33.7331 58.0835 33.7331H54.1315Z" fill="white"/>
</svg>
